<?xml version="1.0" encoding="UTF-8"?>
<!DOCTYPE svg PUBLIC "-//W3C//DTD SVG 1.1//EN" "http://www.w3.org/Graphics/SVG/1.1/DTD/svg11.dtd">
<svg version="1.2" width="60mm" height="60mm" viewBox="0 0 6000 6000" preserveAspectRatio="xMidYMid" fill-rule="evenodd" stroke-width="28.222" stroke-linejoin="round" xmlns="http://www.w3.org/2000/svg" xmlns:ooo="http://xml.openoffice.org/svg/export" xmlns:xlink="http://www.w3.org/1999/xlink" xmlns:presentation="http://sun.com/xmlns/staroffice/presentation" xmlns:smil="http://www.w3.org/2001/SMIL20/" xmlns:anim="urn:oasis:names:tc:opendocument:xmlns:animation:1.0" xml:space="preserve">
 <defs class="ClipPathGroup">
  <clipPath id="presentation_clip_path" clipPathUnits="userSpaceOnUse">
   <rect x="0" y="0" width="6000" height="6000"/>
  </clipPath>
  <clipPath id="presentation_clip_path_shrink" clipPathUnits="userSpaceOnUse">
   <rect x="6" y="6" width="5988" height="5988"/>
  </clipPath>
 </defs>
 <defs class="TextShapeIndex">
  <g ooo:slide="id1" ooo:id-list="id3 id4 id5 id6 id7 id8 id9 id10 id11 id12 id13 id14 id15 id16 id17 id18 id19 id20 id21 id22 id23 id24"/>
 </defs>
 <defs class="EmbeddedBulletChars">
  <g id="bullet-char-template-57356" transform="scale(0.00048828125,-0.00048828125)">
   <path d="M 580,1141 L 1163,571 580,0 -4,571 580,1141 Z"/>
  </g>
  <g id="bullet-char-template-57354" transform="scale(0.00048828125,-0.00048828125)">
   <path d="M 8,1128 L 1137,1128 1137,0 8,0 8,1128 Z"/>
  </g>
  <g id="bullet-char-template-10146" transform="scale(0.00048828125,-0.00048828125)">
   <path d="M 174,0 L 602,739 174,1481 1456,739 174,0 Z M 1358,739 L 309,1346 659,739 1358,739 Z"/>
  </g>
  <g id="bullet-char-template-10132" transform="scale(0.00048828125,-0.00048828125)">
   <path d="M 2015,739 L 1276,0 717,0 1260,543 174,543 174,936 1260,936 717,1481 1274,1481 2015,739 Z"/>
  </g>
  <g id="bullet-char-template-10007" transform="scale(0.00048828125,-0.00048828125)">
   <path d="M 0,-2 C -7,14 -16,27 -25,37 L 356,567 C 262,823 215,952 215,954 215,979 228,992 255,992 264,992 276,990 289,987 310,991 331,999 354,1012 L 381,999 492,748 772,1049 836,1024 860,1049 C 881,1039 901,1025 922,1006 886,937 835,863 770,784 769,783 710,716 594,584 L 774,223 C 774,196 753,168 711,139 L 727,119 C 717,90 699,76 672,76 641,76 570,178 457,381 L 164,-76 C 142,-110 111,-127 72,-127 30,-127 9,-110 8,-76 1,-67 -2,-52 -2,-32 -2,-23 -1,-13 0,-2 Z"/>
  </g>
  <g id="bullet-char-template-10004" transform="scale(0.00048828125,-0.00048828125)">
   <path d="M 285,-33 C 182,-33 111,30 74,156 52,228 41,333 41,471 41,549 55,616 82,672 116,743 169,778 240,778 293,778 328,747 346,684 L 369,508 C 377,444 397,411 428,410 L 1163,1116 C 1174,1127 1196,1133 1229,1133 1271,1133 1292,1118 1292,1087 L 1292,965 C 1292,929 1282,901 1262,881 L 442,47 C 390,-6 338,-33 285,-33 Z"/>
  </g>
  <g id="bullet-char-template-9679" transform="scale(0.00048828125,-0.00048828125)">
   <path d="M 813,0 C 632,0 489,54 383,161 276,268 223,411 223,592 223,773 276,916 383,1023 489,1130 632,1184 813,1184 992,1184 1136,1130 1245,1023 1353,916 1407,772 1407,592 1407,412 1353,268 1245,161 1136,54 992,0 813,0 Z"/>
  </g>
  <g id="bullet-char-template-8226" transform="scale(0.00048828125,-0.00048828125)">
   <path d="M 346,457 C 273,457 209,483 155,535 101,586 74,649 74,723 74,796 101,859 155,911 209,963 273,989 346,989 419,989 480,963 531,910 582,859 608,796 608,723 608,648 583,586 532,535 482,483 420,457 346,457 Z"/>
  </g>
  <g id="bullet-char-template-8211" transform="scale(0.00048828125,-0.00048828125)">
   <path d="M -4,459 L 1135,459 1135,606 -4,606 -4,459 Z"/>
  </g>
  <g id="bullet-char-template-61548" transform="scale(0.00048828125,-0.00048828125)">
   <path d="M 173,740 C 173,903 231,1043 346,1159 462,1274 601,1332 765,1332 928,1332 1067,1274 1183,1159 1299,1043 1357,903 1357,740 1357,577 1299,437 1183,322 1067,206 928,148 765,148 601,148 462,206 346,322 231,437 173,577 173,740 Z"/>
  </g>
 </defs>
 <g>
  <g id="id2" class="Master_Slide">
   <g id="bg-id2" class="Background"/>
   <g id="bo-id2" class="BackgroundObjects"/>
  </g>
 </g>
 <g class="SlideGroup">
  <g>
   <g id="container-id1">
    <g id="id1" class="Slide" clip-path="url(#presentation_clip_path)">
     <g class="Page">
      <g class="Group">
       <g class="com.sun.star.drawing.PolyPolygonShape">
        <g id="id3">
         <rect class="BoundingBox" stroke="none" fill="none" x="790" y="1476" width="273" height="1901"/>
         <path fill="rgb(0,110,76)" stroke="none" d="M 1062,3376 L 790,3376 790,1477 1062,1477 1062,3376 Z"/>
        </g>
       </g>
       <g class="com.sun.star.drawing.PolyPolygonShape">
        <g id="id4">
         <rect class="BoundingBox" stroke="none" fill="none" x="1603" y="2833" width="273" height="545"/>
         <path fill="rgb(0,110,76)" stroke="none" d="M 1875,3377 L 1603,3377 1603,2833 1875,2833 1875,3377 Z"/>
        </g>
       </g>
       <g class="com.sun.star.drawing.PolyPolygonShape">
        <g id="id5">
         <rect class="BoundingBox" stroke="none" fill="none" x="2416" y="2833" width="273" height="545"/>
         <path fill="rgb(0,110,76)" stroke="none" d="M 2688,3377 L 2416,3377 2416,2833 2688,2833 2688,3377 Z"/>
        </g>
       </g>
       <g class="com.sun.star.drawing.PolyPolygonShape">
        <g id="id6">
         <rect class="BoundingBox" stroke="none" fill="none" x="3230" y="2833" width="273" height="545"/>
         <path fill="rgb(0,110,76)" stroke="none" d="M 3502,3377 L 3230,3377 3230,2833 3502,2833 3502,3377 Z"/>
        </g>
       </g>
       <g class="com.sun.star.drawing.PolyPolygonShape">
        <g id="id7">
         <rect class="BoundingBox" stroke="none" fill="none" x="4043" y="2833" width="273" height="545"/>
         <path fill="rgb(0,110,76)" stroke="none" d="M 4315,3377 L 4043,3377 4043,2833 4315,2833 4315,3377 Z"/>
        </g>
       </g>
       <g class="com.sun.star.drawing.PolyPolygonShape">
        <g id="id8">
         <rect class="BoundingBox" stroke="none" fill="none" x="3772" y="1477" width="815" height="1087"/>
         <path fill="rgb(0,110,76)" stroke="none" d="M 4586,1477 L 3772,1477 3772,1749 4043,1749 4043,2563 4315,2563 4315,1749 4586,1749 4586,1477 Z"/>
        </g>
       </g>
       <g class="com.sun.star.drawing.PolyPolygonShape">
        <g id="id9">
         <rect class="BoundingBox" stroke="none" fill="none" x="4857" y="1476" width="273" height="1901"/>
         <path fill="rgb(0,110,76)" stroke="none" d="M 5129,3376 L 4857,3376 4857,1477 5129,1477 5129,3376 Z"/>
        </g>
       </g>
       <g class="com.sun.star.drawing.ClosedBezierShape">
        <g id="id10">
         <rect class="BoundingBox" stroke="none" fill="none" x="1603" y="1477" width="815" height="1087"/>
         <path fill="rgb(0,110,76)" stroke="none" d="M 2010,2018 L 1874,2018 1874,1749 2010,1749 C 2085,1749 2146,1809 2146,1884 2146,1958 2085,2018 2010,2018 Z M 2010,2018 L 2010,2018 Z M 2010,1477 L 1739,1477 1603,1477 1603,2563 1874,2563 1874,2290 2010,2290 C 2234,2290 2417,2107 2417,1884 2417,1659 2234,1477 2010,1477 Z"/>
        </g>
       </g>
       <g class="com.sun.star.drawing.ClosedBezierShape">
        <g id="id11">
         <rect class="BoundingBox" stroke="none" fill="none" x="2608" y="1471" width="935" height="1094"/>
         <path fill="rgb(0,110,76)" stroke="none" d="M 3155,2564 C 3015,2564 2875,2510 2767,2403 2664,2300 2608,2163 2608,2016 2608,1871 2664,1733 2767,1630 2981,1418 3329,1418 3542,1630 L 3350,1822 C 3242,1714 3068,1715 2960,1822 2908,1873 2880,1942 2880,2016 2880,2091 2908,2160 2960,2212 3068,2319 3242,2319 3350,2212 L 3542,2403 C 3436,2510 3295,2564 3155,2564 Z"/>
        </g>
       </g>
      </g>
      <g class="Group">
       <g class="com.sun.star.drawing.ClosedBezierShape">
        <g id="id12">
         <rect class="BoundingBox" stroke="none" fill="none" x="790" y="4160" width="277" height="318"/>
         <path fill="rgb(0,110,76)" stroke="none" d="M 993,4280 C 993,4345 993,4411 993,4476 1017,4476 1041,4476 1065,4476 1065,4371 1065,4266 1065,4161 1044,4161 1023,4161 1002,4161 956,4226 909,4291 863,4357 863,4291 863,4226 863,4161 839,4161 815,4161 790,4161 790,4266 790,4371 790,4476 812,4476 833,4476 854,4476 900,4411 947,4345 993,4280 Z"/>
        </g>
       </g>
       <g class="com.sun.star.drawing.ClosedBezierShape">
        <g id="id13">
         <rect class="BoundingBox" stroke="none" fill="none" x="1148" y="4158" width="212" height="321"/>
         <path fill="rgb(0,110,76)" stroke="none" d="M 1148,4475 C 1167,4477 1197,4478 1239,4478 1274,4478 1303,4470 1325,4453 1347,4437 1359,4412 1359,4381 1358,4362 1354,4346 1346,4334 1337,4322 1327,4313 1314,4309 L 1314,4308 C 1338,4292 1350,4268 1350,4237 1350,4214 1341,4195 1324,4181 1306,4167 1280,4159 1244,4159 1215,4159 1184,4160 1148,4162 L 1148,4475 Z M 1248,4349 C 1274,4349 1287,4358 1287,4377 1287,4399 1273,4410 1245,4410 1235,4410 1227,4409 1220,4408 L 1220,4349 1248,4349 Z M 1243,4227 C 1253,4227 1261,4229 1268,4234 1274,4239 1277,4246 1278,4255 1278,4275 1266,4285 1244,4286 L 1220,4286 1220,4228 C 1231,4227 1239,4226 1243,4227 Z"/>
        </g>
       </g>
       <g class="com.sun.star.drawing.ClosedBezierShape">
        <g id="id14">
         <rect class="BoundingBox" stroke="none" fill="none" x="1385" y="4160" width="329" height="318"/>
         <path fill="rgb(0,110,76)" stroke="none" d="M 1458,4476 C 1467,4454 1476,4432 1484,4410 1526,4410 1568,4410 1609,4410 1618,4432 1627,4454 1635,4476 1661,4476 1687,4476 1712,4476 1669,4371 1625,4266 1581,4161 1560,4161 1538,4161 1517,4161 1473,4266 1429,4371 1386,4476 1410,4476 1434,4476 1458,4476 Z M 1582,4342 C 1559,4342 1535,4342 1511,4342 1523,4313 1535,4283 1547,4253 1559,4283 1570,4313 1582,4342 Z"/>
        </g>
       </g>
       <g class="com.sun.star.drawing.ClosedBezierShape">
        <g id="id15">
         <rect class="BoundingBox" stroke="none" fill="none" x="1756" y="4160" width="261" height="318"/>
         <path fill="rgb(0,110,76)" stroke="none" d="M 2016,4476 C 2016,4371 2016,4266 2016,4161 1992,4161 1968,4161 1944,4161 1944,4201 1944,4241 1944,4282 1906,4282 1867,4282 1829,4282 1829,4241 1829,4201 1829,4161 1805,4161 1781,4161 1757,4161 1757,4266 1757,4371 1757,4476 1781,4476 1805,4476 1829,4476 1829,4434 1829,4391 1829,4349 1867,4349 1906,4349 1944,4349 1944,4391 1944,4434 1944,4476 1968,4476 1992,4476 2016,4476 Z"/>
        </g>
       </g>
       <g class="com.sun.star.drawing.ClosedBezierShape">
        <g id="id16">
         <rect class="BoundingBox" stroke="none" fill="none" x="2079" y="4155" width="337" height="328"/>
         <path fill="rgb(0,110,76)" stroke="none" d="M 2079,4318 C 2079,4368 2095,4407 2126,4437 2158,4467 2198,4482 2247,4482 2295,4482 2335,4466 2367,4436 2399,4405 2415,4366 2415,4318 2415,4269 2399,4230 2367,4200 2336,4170 2296,4155 2247,4155 2197,4155 2157,4171 2126,4202 2095,4233 2079,4272 2079,4318 Z M 2156,4318 C 2156,4290 2165,4267 2182,4250 2199,4232 2220,4223 2247,4223 2273,4223 2294,4232 2312,4250 2329,4267 2338,4290 2338,4318 2338,4346 2330,4369 2314,4387 2298,4405 2276,4414 2247,4414 2222,4414 2200,4405 2183,4386 2165,4368 2156,4345 2156,4318 Z"/>
        </g>
       </g>
       <g class="com.sun.star.drawing.ClosedBezierShape">
        <g id="id17">
         <rect class="BoundingBox" stroke="none" fill="none" x="2474" y="4158" width="212" height="321"/>
         <path fill="rgb(0,110,76)" stroke="none" d="M 2474,4475 C 2493,4477 2523,4478 2565,4478 2600,4478 2629,4470 2651,4453 2673,4437 2684,4412 2684,4381 2684,4362 2680,4346 2672,4334 2663,4322 2653,4313 2639,4309 L 2639,4308 C 2663,4292 2675,4268 2675,4237 2676,4214 2667,4195 2649,4181 2632,4167 2605,4159 2570,4159 2541,4159 2509,4160 2474,4162 L 2474,4475 Z M 2574,4349 C 2600,4349 2612,4358 2612,4377 2612,4399 2598,4410 2570,4410 2561,4410 2553,4409 2546,4408 L 2546,4349 2574,4349 Z M 2569,4227 C 2579,4227 2587,4229 2593,4234 2600,4239 2603,4246 2603,4255 2603,4275 2592,4285 2570,4286 L 2546,4286 2546,4228 C 2557,4227 2565,4226 2569,4227 Z"/>
        </g>
       </g>
       <g class="com.sun.star.drawing.ClosedBezierShape">
        <g id="id18">
         <rect class="BoundingBox" stroke="none" fill="none" x="2729" y="4155" width="270" height="328"/>
         <path fill="rgb(0,110,76)" stroke="none" d="M 2970,4391 C 2950,4406 2927,4414 2902,4414 2873,4414 2850,4405 2833,4387 2815,4369 2806,4346 2806,4318 2806,4288 2814,4265 2831,4248 2848,4231 2869,4223 2894,4223 2916,4223 2938,4229 2959,4242 L 2991,4188 C 2981,4178 2967,4171 2950,4165 2933,4159 2915,4156 2894,4155 2842,4155 2802,4171 2773,4201 2744,4232 2730,4271 2730,4318 2730,4367 2745,4407 2775,4437 2806,4467 2846,4482 2895,4482 2916,4482 2936,4478 2955,4472 2974,4465 2988,4456 2998,4445 L 2970,4391 Z"/>
        </g>
       </g>
       <g class="com.sun.star.drawing.ClosedBezierShape">
        <g id="id19">
         <rect class="BoundingBox" stroke="none" fill="none" x="3049" y="4160" width="273" height="318"/>
         <path fill="rgb(0,110,76)" stroke="none" d="M 3121,4476 C 3121,4426 3121,4376 3121,4326 3157,4376 3193,4426 3229,4476 3259,4476 3290,4476 3320,4476 3278,4420 3235,4363 3192,4306 3232,4258 3271,4209 3311,4161 3282,4161 3253,4161 3224,4161 3190,4207 3156,4252 3121,4298 3121,4252 3121,4207 3121,4161 3097,4161 3073,4161 3049,4161 3049,4266 3049,4371 3049,4476 3073,4476 3097,4476 3121,4476 Z"/>
        </g>
       </g>
       <g class="com.sun.star.drawing.ClosedBezierShape">
        <g id="id20">
         <rect class="BoundingBox" stroke="none" fill="none" x="3360" y="4160" width="277" height="318"/>
         <path fill="rgb(0,110,76)" stroke="none" d="M 3563,4280 C 3563,4345 3563,4411 3563,4476 3587,4476 3611,4476 3635,4476 3635,4371 3635,4266 3635,4161 3614,4161 3593,4161 3572,4161 3526,4226 3479,4291 3433,4357 3433,4291 3433,4226 3433,4161 3409,4161 3385,4161 3361,4161 3361,4266 3361,4371 3361,4476 3382,4476 3403,4476 3424,4476 3470,4411 3517,4345 3563,4280 Z"/>
        </g>
       </g>
       <g class="com.sun.star.drawing.ClosedBezierShape">
        <g id="id21">
         <rect class="BoundingBox" stroke="none" fill="none" x="3718" y="4079" width="277" height="399"/>
         <path fill="rgb(0,110,76)" stroke="none" d="M 3921,4280 L 3921,4476 3993,4476 3993,4161 3930,4161 3791,4357 3791,4161 3718,4161 3718,4476 3781,4476 3921,4280 Z M 3768,4080 C 3768,4102 3777,4119 3793,4132 3810,4145 3833,4152 3863,4152 3892,4152 3914,4145 3931,4132 3949,4119 3958,4101 3957,4080 L 3890,4080 C 3890,4089 3888,4095 3883,4098 3879,4101 3873,4102 3863,4102 3853,4102 3846,4101 3842,4097 3838,4094 3835,4088 3836,4080 L 3768,4080 Z"/>
        </g>
       </g>
       <g class="com.sun.star.drawing.ClosedBezierShape">
        <g id="id22">
         <rect class="BoundingBox" stroke="none" fill="none" x="4164" y="4160" width="297" height="372"/>
         <path fill="rgb(0,110,76)" stroke="none" d="M 4392,4476 C 4392,4494 4392,4512 4392,4530 4414,4530 4437,4530 4459,4530 4459,4490 4459,4449 4459,4409 4445,4409 4431,4409 4416,4409 4416,4326 4416,4243 4416,4161 4392,4161 4368,4161 4344,4161 4344,4243 4344,4326 4344,4409 4308,4409 4272,4409 4236,4409 4236,4326 4236,4243 4236,4161 4212,4161 4188,4161 4164,4161 4164,4266 4164,4371 4164,4476 4240,4476 4316,4476 4392,4476 Z"/>
        </g>
       </g>
       <g class="com.sun.star.drawing.ClosedBezierShape">
        <g id="id23">
         <rect class="BoundingBox" stroke="none" fill="none" x="4480" y="4155" width="270" height="328"/>
         <path fill="rgb(0,110,76)" stroke="none" d="M 4721,4391 C 4700,4406 4678,4414 4652,4414 4624,4414 4601,4405 4583,4387 4566,4369 4557,4346 4557,4318 4557,4288 4565,4265 4582,4248 4598,4231 4619,4223 4645,4223 4667,4223 4688,4229 4709,4242 L 4741,4188 C 4731,4178 4718,4171 4701,4165 4684,4159 4665,4156 4645,4155 4593,4155 4552,4171 4523,4201 4495,4232 4480,4271 4480,4318 4480,4367 4496,4407 4526,4437 4557,4467 4596,4482 4646,4482 4667,4482 4687,4478 4705,4472 4724,4465 4739,4456 4748,4445 L 4721,4391 Z"/>
        </g>
       </g>
       <g class="com.sun.star.drawing.ClosedBezierShape">
        <g id="id24">
         <rect class="BoundingBox" stroke="none" fill="none" x="4799" y="4160" width="332" height="318"/>
         <path fill="rgb(0,110,76)" stroke="none" d="M 4872,4476 C 4872,4410 4872,4343 4872,4277 4901,4317 4930,4358 4959,4398 4963,4398 4966,4398 4970,4398 4999,4357 5028,4316 5057,4275 5057,4342 5057,4409 5057,4476 5082,4476 5106,4476 5130,4476 5130,4371 5130,4266 5130,4161 5107,4161 5084,4161 5062,4161 5031,4205 5000,4249 4970,4294 4937,4249 4905,4205 4872,4161 4848,4161 4824,4161 4800,4161 4800,4266 4800,4371 4800,4476 4824,4476 4848,4476 4872,4476 Z"/>
        </g>
       </g>
      </g>
     </g>
    </g>
   </g>
  </g>
 </g>
</svg>