<svg xmlns="http://www.w3.org/2000/svg" width="464" height="462"><g style="fill-rule:evenodd;fill:#000;fill-opacity:1"><path d="M227 168h-2l-1 1-1 2v4l1 1 1 1h2a7 7 0 0 0 4-1l-1-4v-2l-2-2h-1zm34-4h16l1 1a9 9 0 0 1 0 2 9 9 0 0 1-1 2v1l-9 21h-5v-1l9-21h-11l-1-1v-3l1-1zm-54 0a19 19 0 0 1 2 0l1 1v22h4v1h1a13 13 0 0 1 0 2l-1 1h-15v-4h5v-18l-4 3h-1v-4l6-4h2zm41 0h3l3 2 1 2 1 3-1 2-1 3-2 3-3 5-3 3h11v1a7 7 0 0 1 0 2v1h-17l-1-1v-2l1-1a5 5 0 0 1 1-2l4-5a22 22 0 0 0 4-5 9 9 0 0 0 0-3v-2l-1-1h-4a10 10 0 0 0-3 1l-1 1v-5l1-1a14 14 0 0 1 7-1zm-21 0h3a7 7 0 0 1 4 3l1 3 1 3a43 43 0 0 1-1 10l-1 4a9 9 0 0 1-5 4 12 12 0 0 1-6 1l-2-1h-2v-2a16 16 0 0 1 0-2h4l2 1 2-1 2-2 1-2 1-3-2 1h-7l-2-2-2-3a14 14 0 0 1 0-7l2-3 3-2h4z"/><path d="M73 2h317a70 70 0 0 1 71 70v318a70 70 0 0 1-71 70H73a70 70 0 0 1-71-70V72A70 70 0 0 1 73 2zm317 13H73a57 57 0 0 0-57 57v318a57 57 0 0 0 57 57h317a57 57 0 0 0 58-57V72a57 57 0 0 0-58-57z"/><path d="m38 165 11 8 1-3a6 6 0 0 0-1-4l-1-2-3-1-2-1-2 1-3 2zm-3 5-1 3a6 6 0 0 0 1 5l2 1 2 2h3l2-1 2-2-11-8zm-5-7 1-1v-1h1l3 2 4-4 3-2h4l5 2 3 3 1 4v5l-2 5 3 2v2a13 13 0 0 1-2 2l-1 1-3-2-4 4-4 2h-4a13 13 0 0 1-7-6l-2-4v-4l2-5-2-2v-2l1-1zm29-11 7 5 2-3 2-2v-4l-2-1-1-1h-2l-1 1-2 2-3 3zm-15-8 10-13h2a9 9 0 0 1 2 2v1l-8 10 6 5 3-4 3-4 4-1h3l3 2 2 3 1 3v4l-3 5-5 6-1 1h-2l-20-17v-3zm15-19 1-1 1-1h2l9 3a60 60 0 0 1 6 2l-2-3-1-3-4-9h-1l1-1v-1l1-1 1-1 1-1h1v1l9 20 2 4 1 4-1 3a10 10 0 0 1-4 4h-3a11 11 0 0 1-2-3l1-1h1l1-1v-1l1-1v-1l-1-1-21-7h-1v-2l1-1zm43-32 1-1 1-1v1l2 9 9 4h1l-1 1-1 1v1h-2l-9-3h-1v-1l-1-9v-2h1zm-7 6 1-1 1-1v1l3 10 9 3v2a9 9 0 0 1-2 1l-1 1-10-3-1-1v-1l-2-9v-1h1v-1h1zm12-22a12 12 0 0 1 2-1h1l9 13 1 1 1 2v-5l-1-19v-1h1l1-1a8 8 0 0 1 2-1l17 23v1h-1v1l-1 1a9 9 0 0 1-2 1h-1l-9-13a194 194 0 0 1-2-3v1a15 15 0 0 1 0 2v2l1 19v1h-1l-1 1-1 1h-2l-16-23v-1a8 8 0 0 1 2-2zm38-2 3 5h1l1-1 2-1 1-2v-1a3 3 0 0 0-1-2l-1-1-2 1-2 1-2 1zm-2-9a23 23 0 0 0-2 2l2 4 3-1 2-2v-3l-1-1h-2l-2 1zm-2-4 4-1 3-1 2 1 2 2 1 3-2 3h4l3 2 1 3-1 3-2 3-4 3-1 1h-2l-1 1-1 1h-2l-1-1-9-16v-2l1-1 1-1 1-1 2-1 1-1zm28 1-2 1-2 1v3l2 1h2l2-1 1-3-1-3-2 1zm-7-12 4-1h3l3 2 2 3 5 13v1a11 11 0 0 1-3 1h-1l-1-2-1 3-3 3h-6l-2-1-2-3v-3l1-3 2-2 4-3h2v-2l-1-1-1-1h-3l-2 2a13 13 0 0 0-3 2l-1 1h-1v-1l-1-1v-2l1-1 1-1a16 16 0 0 1 4-3zm18-7a16 16 0 0 1 2 0h1l2 8 8-3-2-7v-1h1a11 11 0 0 1 2-1h2l6 20v1h-1l-2 1h-3l-2-8-8 2 3 8v1h-1l-1 1a17 17 0 0 1-3 1l-1-1-6-20 1-1 2-1zm33-4-2 1-2 2v5l1 3 1 2 1 1h3l2-1 1-1 1-3v-2l-1-3-1-2-2-2h-2zm-1-4h5a8 8 0 0 1 6 5l1 4v5l-1 4-3 3-5 2h-4a8 8 0 0 1-7-5l-1-5v-5l2-4 3-3 4-1zm22 10v6h1l1 1h2l2-1h1l1-1v-3l-1-1-2-1h-5zm3-9a33 33 0 0 0-3 1v5h3l3-1 1-2v-1l-1-1h-1l-2-1zm0-4 4 1 3 1a5 5 0 0 1 2 4l-1 3-2 2 3 2 2 3-1 3-2 3-3 1-5 1h-6l-1-1-1-2V35l1-1h3l2-1h2zm25 1a9 9 0 0 1 3 1l1 1 1 1h1v2l-1 2v1l-1-1-1-1h-1l-2-1c-2 0-3 0-4 2l-1 5v5l2 1 2 1h2l1-1 1-1h1v1h1a15 15 0 0 1-1 3v1l-1 1h-2a10 10 0 0 1-4 1l-4-1-3-3-1-4v-5l1-5 2-3 4-2 4-1zm14 3a9 9 0 0 1 2 1h1l-2 8h1l2 1 1-1 1-1 1-1 2-4 1-1h1l2 1h2v1l-1 1-2 4-1 2a7 7 0 0 1-4 2 9 9 0 0 1 2 2l1 1v2l1 5v2h-1a16 16 0 0 1-4-1h-1v-6l-1-2v-1l-1-1h-3l-1 8h-2a26 26 0 0 1-3 0v-1h-1l4-21h3zm24 6 2 1v1l-3 9-1 1v2l1-1 2-1 9-7h3l2 1h1v1l-7 20h-2a15 15 0 0 1-3-1v-1c-1 0-1 0 0 0l3-9v-2l1-2-2 2-1 1-10 7h-2l-1-1a16 16 0 0 1-2 0v-1l7-20 1-1v1h2zm25 10 2 2-4 9-1 1-1 2 2-1 2-1 10-5v-1h1l1 1h1a12 12 0 0 1 2 1v1l-9 19h-2l-1-1h-1l-1-1v-1l4-8 1-2 1-2a37 37 0 0 1-4 3l-10 5h-3l-1-1-1-1 9-19v-1h1l1 1h1zm6-8 1 1 1 1h-1v1a3 3 0 0 0 1 2l1 1 1 1a3 3 0 0 0 3-2l1-1 1 1a8 8 0 0 1 2 1l1 1-2 3-2 1h-3l-4-1-3-3-1-2-1-3 1-2v-1h2l1 1zm30 21 1 1h1v1l-14 20 9 7 14-20h2l1 1 1 1 1 1v1l-14 19 2 2v2l-6 9h-1l-1-1a10 10 0 0 1-2-1v-2l4-5-16-12-1-1 1-2 15-22h2l1 1zm32 26a14 14 0 0 1 4 5v2a7 7 0 0 1-1 2 10 10 0 0 1-2 1v1l-1-1v-1a13 13 0 0 0-1-3 8 8 0 0 0-5-4h-3l-3 2-3 3-3 3-1 4 1 3 2 2a9 9 0 0 0 4 3h3v1l-1 1v1a12 12 0 0 1-2 1h-4a15 15 0 0 1-4-3l-4-5-1-5 1-5 4-6 5-4 5-2 5 1c2 0 4 1 5 3zm12 11 2 3 1 2 1 1v1l-1 2-8 17 17-7 1-1h2l1 1 1 1 3 3v2l-1 1-18 19h-1l-1-1-1-1a10 10 0 0 1-1-2s-1 0 0 0v-1l17-17-23 11h-1l-1-1-1-1a13 13 0 0 1-1-2v-1l12-23-18 17h-1v-1a12 12 0 0 1-3-2v-1l19-19 2-1 2 1zm21 38 1 1v1l-3 10h-1l-1 1-8 1h-1l-1-1v-1l-1-1v-1l9-2 4-9h1l1 1zm6 7 1 1v2l-3 9-1 1h-1l-9 2-1-1a10 10 0 0 1-2-2v-1l1-1 9-1 4-10h1l1 1zM125 371h1c10 12 57 18 105 18a280 280 0 0 0 120-19V195c0-24-11-44-27-58-19-15-46-24-73-26v2h-2l-12 3-12-3h-1v-2c-27 2-53 11-72 27a73 73 0 0 0-27 57v176zm-2 3-2-1V195c0-26 11-46 28-61 20-16 48-26 77-28h2v3a25 25 0 0 0 18 0v-3h3c29 2 57 11 77 28 18 15 29 35 29 61v178l-4 3c-19 12-71 18-120 18-49-1-97-7-108-20z"/><path d="M271 338c30 1 56 5 74 11 19 5 30 12 30 20l-2 7-7 5v1h-1l-29-11-29 8v5l17 7 7 3-8 1a407 407 0 0 1-86 7 588 588 0 0 1-86-6l-7-2 7-3 17-7v-5l-29-8-30 11h-2l-6-6c-2-2-3-4-3-7 0-8 12-15 31-20 18-6 45-10 75-11h2v23c11 5 22 8 32 8 11 0 21-2 31-8v-23h2zm73 15c-18-5-42-9-71-11v22l-1 1c-11 6-22 9-34 9-11 0-23-3-35-9l-1-1v-22c-29 2-54 6-72 11-17 5-27 11-27 16l1 4 5 4 29-11h1l32 9 2 1v11h-1l-12 5a434 434 0 0 0 77 6 580 580 0 0 0 78-6l-11-5h-2v-11l2-1 32-9h1l28 11 4-4 2-4c0-5-10-11-27-16z"/><path d="M375 371v20l-1 3h-3l-1-2v-8l-5-2a2 2 0 0 1-1-4l5-4 1-3c1-2 2-2 3-2l2 2zm-5 8v-1 1zm-38 34a370 370 0 0 1-95 8 578 578 0 0 1-94-8c-1 0-2-1-2-3l1-1v-13l1-2 8-3h1a413 413 0 0 0 85 7 580 580 0 0 0 87-7l8 3 1 2v16l-1 1zm-45 2 41-6 1-11-6-3a410 410 0 0 1-86 7 588 588 0 0 1-85-6l-5 2v11a380 380 0 0 0 90 8l50-2zm37-24 1 2m-224 3-2-4-1-3v-20l2-2c2 0 3 1 3 2l1 4 6 5v3l-1 1-4 2v10l-1 2h-3zm1-18v2h1l1-1-2-1zM121 371c-1-7 8-13 23-18s36-8 60-10v5c-23 1-44 5-59 9-12 4-20 9-20 14h-4zm150-28c22 1 41 4 57 9 13 4 23 10 27 18l-4 2c-3-6-12-12-25-16-15-4-34-7-55-9v-4zM237 72c4 0 7 1 10 4a14 14 0 0 1 0 19c-3 2-6 4-10 4-3 0-6-2-9-4a14 14 0 0 1 0-19c3-3 6-4 9-4zm5 8a7 7 0 0 0-9 0 8 8 0 0 0 0 11 7 7 0 0 0 9 0l3-6c0-2-1-4-3-5z"/><path d="M226 100c4-1 5-3 6-5v-1l1-2h3l1 1 2-1h3l1 2v1l-3 1 3-1c1 2 2 5 6 5l3 1v12l-2 1-13 2c-4 0-8 0-12-2l-2-1v-12l3-1zm11-1c-2 2-4 5-8 7v3a25 25 0 0 0 17 0v-3c-5-2-6-5-8-7h-1zM171 371v-1l-1-1v-89c0-26 18-43 41-50a92 92 0 0 1 55 0c22 7 40 24 40 50v90l-1 1-2 1-2-2 2 2c-11 7-41 11-69 11-28-1-56-4-63-12zm5-4c6 6 31 9 58 10 27 0 56-3 66-10v-87c0-23-16-38-36-44a87 87 0 0 0-52 0c-20 6-36 21-36 44v87z"/><path d="M170 368c0-4 3-7 10-10 6-3 14-5 24-6l1 6c-10 1-18 3-23 6-4 1-6 3-6 4h-6zm102-16 22 5c6 3 10 6 12 10l-5 3c-2-3-5-5-9-7l-21-5 1-6z"/><path d="M204 288c10-5 21-7 32-7 12 0 23 2 36 7h1v76h-1c-11 6-22 9-34 9-11 0-23-3-34-9h-1v-76h1zm32-4c-10 0-20 2-30 6v72c11 5 22 8 32 8 11 0 21-3 32-8v-72c-12-4-23-6-34-6z"/><path d="m206 288 1 3c6 5 18 7 29 6 12 0 24-2 31-6l3-3 2 2-3 3c-7 5-20 7-33 8-12 0-24-2-31-8l-2-3 3-2z"/><path d="M247 298c-1 7 34 62-19 69-11 1-11-1-16-1 21 8 40 7 59-3v-74c-4 3-12 8-24 9zM221 116c-47 5-77 32-85 62l1 196 5-5 1-191c8-25 32-52 78-62zM323 172l7-5v196l-7 5V172zM230 237c-24 2-40 16-44 32v103l3-3V269c4-13 17-27 41-32zM284 270l4-3v95l-4 2v-94z"/><path d="m210 296 4-2v71l-4 1v-70zM336 370l-30 9v5l25 11 1 1v13l27 14 28-11v-8l-16-9-1-1v-11l-34-13zm-32 6 32-9h1l35 14 1 1v11l16 8v14l-30 11h-1l-28-15-1-1v-13l-25-10-1-2v-7l1-2z"/><path d="m305 376 36 15 30-10 1 2-31 11h-1l-36-15 1-3z"/><path d="M342 393v11l29-12 1 3-31 12-2-1v-13h3z"/><path d="m342 404 17 9 28-12 2 3-30 12h-1l-18-9 2-3z"/><path d="M360 414v11h-3v-11h3zM139 367l32 9 1 2v7l-1 2-25 10v13l-1 1-28 15h-1l-29-11-1-2v-12l16-8v-11l1-1 35-14h1zm30 12-30-9-34 13v11l-1 1-15 9v8l27 11 27-14v-13l1-1 25-11v-5z"/><path d="m171 379-36 15h-1l-31-11 1-2 30 10 36-15 1 3z"/><path d="M136 393v13l-2 1-31-12 1-3 29 12v-11h3z"/><path d="m135 407-18 9h-1l-29-12 1-3 28 12 18-9 1 3z"/><path d="M118 414v11h-3v-11h3z"/></g></svg>