<?xml version="1.0" encoding="UTF-8"?>
<!DOCTYPE svg PUBLIC "-//W3C//DTD SVG 1.1//EN" "http://www.w3.org/Graphics/SVG/1.1/DTD/svg11.dtd">
<svg version="1.2" width="60mm" height="46mm" viewBox="0 0 6000 4600" preserveAspectRatio="xMidYMid" fill-rule="evenodd" stroke-width="28.222" stroke-linejoin="round" xmlns="http://www.w3.org/2000/svg" xmlns:ooo="http://xml.openoffice.org/svg/export" xmlns:xlink="http://www.w3.org/1999/xlink" xmlns:presentation="http://sun.com/xmlns/staroffice/presentation" xmlns:smil="http://www.w3.org/2001/SMIL20/" xmlns:anim="urn:oasis:names:tc:opendocument:xmlns:animation:1.0" xml:space="preserve">
 <defs class="ClipPathGroup">
  <clipPath id="presentation_clip_path" clipPathUnits="userSpaceOnUse">
   <rect x="0" y="0" width="6000" height="4600"/>
  </clipPath>
  <clipPath id="presentation_clip_path_shrink" clipPathUnits="userSpaceOnUse">
   <rect x="6" y="4" width="5988" height="4591"/>
  </clipPath>
 </defs>
 <defs class="TextShapeIndex">
  <g ooo:slide="id1" ooo:id-list="id3 id4 id5 id6 id7 id8 id9 id10 id11 id12 id13 id14 id15 id16 id17 id18 id19 id20 id21 id22 id23 id24"/>
 </defs>
 <defs class="EmbeddedBulletChars">
  <g id="bullet-char-template-57356" transform="scale(0.00048828125,-0.00048828125)">
   <path d="M 580,1141 L 1163,571 580,0 -4,571 580,1141 Z"/>
  </g>
  <g id="bullet-char-template-57354" transform="scale(0.00048828125,-0.00048828125)">
   <path d="M 8,1128 L 1137,1128 1137,0 8,0 8,1128 Z"/>
  </g>
  <g id="bullet-char-template-10146" transform="scale(0.00048828125,-0.00048828125)">
   <path d="M 174,0 L 602,739 174,1481 1456,739 174,0 Z M 1358,739 L 309,1346 659,739 1358,739 Z"/>
  </g>
  <g id="bullet-char-template-10132" transform="scale(0.00048828125,-0.00048828125)">
   <path d="M 2015,739 L 1276,0 717,0 1260,543 174,543 174,936 1260,936 717,1481 1274,1481 2015,739 Z"/>
  </g>
  <g id="bullet-char-template-10007" transform="scale(0.00048828125,-0.00048828125)">
   <path d="M 0,-2 C -7,14 -16,27 -25,37 L 356,567 C 262,823 215,952 215,954 215,979 228,992 255,992 264,992 276,990 289,987 310,991 331,999 354,1012 L 381,999 492,748 772,1049 836,1024 860,1049 C 881,1039 901,1025 922,1006 886,937 835,863 770,784 769,783 710,716 594,584 L 774,223 C 774,196 753,168 711,139 L 727,119 C 717,90 699,76 672,76 641,76 570,178 457,381 L 164,-76 C 142,-110 111,-127 72,-127 30,-127 9,-110 8,-76 1,-67 -2,-52 -2,-32 -2,-23 -1,-13 0,-2 Z"/>
  </g>
  <g id="bullet-char-template-10004" transform="scale(0.00048828125,-0.00048828125)">
   <path d="M 285,-33 C 182,-33 111,30 74,156 52,228 41,333 41,471 41,549 55,616 82,672 116,743 169,778 240,778 293,778 328,747 346,684 L 369,508 C 377,444 397,411 428,410 L 1163,1116 C 1174,1127 1196,1133 1229,1133 1271,1133 1292,1118 1292,1087 L 1292,965 C 1292,929 1282,901 1262,881 L 442,47 C 390,-6 338,-33 285,-33 Z"/>
  </g>
  <g id="bullet-char-template-9679" transform="scale(0.00048828125,-0.00048828125)">
   <path d="M 813,0 C 632,0 489,54 383,161 276,268 223,411 223,592 223,773 276,916 383,1023 489,1130 632,1184 813,1184 992,1184 1136,1130 1245,1023 1353,916 1407,772 1407,592 1407,412 1353,268 1245,161 1136,54 992,0 813,0 Z"/>
  </g>
  <g id="bullet-char-template-8226" transform="scale(0.00048828125,-0.00048828125)">
   <path d="M 346,457 C 273,457 209,483 155,535 101,586 74,649 74,723 74,796 101,859 155,911 209,963 273,989 346,989 419,989 480,963 531,910 582,859 608,796 608,723 608,648 583,586 532,535 482,483 420,457 346,457 Z"/>
  </g>
  <g id="bullet-char-template-8211" transform="scale(0.00048828125,-0.00048828125)">
   <path d="M -4,459 L 1135,459 1135,606 -4,606 -4,459 Z"/>
  </g>
  <g id="bullet-char-template-61548" transform="scale(0.00048828125,-0.00048828125)">
   <path d="M 173,740 C 173,903 231,1043 346,1159 462,1274 601,1332 765,1332 928,1332 1067,1274 1183,1159 1299,1043 1357,903 1357,740 1357,577 1299,437 1183,322 1067,206 928,148 765,148 601,148 462,206 346,322 231,437 173,577 173,740 Z"/>
  </g>
 </defs>
 <g>
  <g id="id2" class="Master_Slide">
   <g id="bg-id2" class="Background"/>
   <g id="bo-id2" class="BackgroundObjects"/>
  </g>
 </g>
 <g class="SlideGroup">
  <g>
   <g id="container-id1">
    <g id="id1" class="Slide" clip-path="url(#presentation_clip_path)">
     <g class="Page">
      <g class="Group">
       <g class="com.sun.star.drawing.PolyPolygonShape">
        <g id="id3">
         <rect class="BoundingBox" stroke="none" fill="none" x="799" y="800" width="274" height="1900"/>
         <path fill="rgb(0,0,0)" stroke="none" d="M 1072,2699 L 800,2699 800,800 1072,800 1072,2699 Z"/>
        </g>
       </g>
       <g class="com.sun.star.drawing.PolyPolygonShape">
        <g id="id4">
         <rect class="BoundingBox" stroke="none" fill="none" x="1613" y="2156" width="273" height="545"/>
         <path fill="rgb(0,0,0)" stroke="none" d="M 1885,2700 L 1613,2700 1613,2156 1885,2156 1885,2700 Z"/>
        </g>
       </g>
       <g class="com.sun.star.drawing.PolyPolygonShape">
        <g id="id5">
         <rect class="BoundingBox" stroke="none" fill="none" x="2426" y="2156" width="273" height="545"/>
         <path fill="rgb(0,0,0)" stroke="none" d="M 2698,2700 L 2426,2700 2426,2156 2698,2156 2698,2700 Z"/>
        </g>
       </g>
       <g class="com.sun.star.drawing.PolyPolygonShape">
        <g id="id6">
         <rect class="BoundingBox" stroke="none" fill="none" x="3240" y="2156" width="273" height="545"/>
         <path fill="rgb(0,0,0)" stroke="none" d="M 3512,2700 L 3240,2700 3240,2156 3512,2156 3512,2700 Z"/>
        </g>
       </g>
       <g class="com.sun.star.drawing.PolyPolygonShape">
        <g id="id7">
         <rect class="BoundingBox" stroke="none" fill="none" x="4053" y="2156" width="273" height="545"/>
         <path fill="rgb(0,0,0)" stroke="none" d="M 4325,2700 L 4053,2700 4053,2156 4325,2156 4325,2700 Z"/>
        </g>
       </g>
       <g class="com.sun.star.drawing.PolyPolygonShape">
        <g id="id8">
         <rect class="BoundingBox" stroke="none" fill="none" x="3782" y="800" width="815" height="1087"/>
         <path fill="rgb(0,0,0)" stroke="none" d="M 4596,800 L 3782,800 3782,1072 4053,1072 4053,1886 4325,1886 4325,1072 4596,1072 4596,800 Z"/>
        </g>
       </g>
       <g class="com.sun.star.drawing.PolyPolygonShape">
        <g id="id9">
         <rect class="BoundingBox" stroke="none" fill="none" x="4867" y="800" width="273" height="1900"/>
         <path fill="rgb(0,0,0)" stroke="none" d="M 5139,2699 L 4867,2699 4867,800 5139,800 5139,2699 Z"/>
        </g>
       </g>
       <g class="com.sun.star.drawing.ClosedBezierShape">
        <g id="id10">
         <rect class="BoundingBox" stroke="none" fill="none" x="1613" y="800" width="815" height="1087"/>
         <path fill="rgb(0,0,0)" stroke="none" d="M 2020,1341 L 1884,1341 1884,1072 2020,1072 C 2095,1072 2156,1132 2156,1207 2156,1281 2095,1341 2020,1341 Z M 2020,1341 L 2020,1341 Z M 2020,800 L 1749,800 1613,800 1613,1886 1884,1886 1884,1613 2020,1613 C 2244,1613 2427,1430 2427,1207 2427,982 2244,800 2020,800 Z"/>
        </g>
       </g>
       <g class="com.sun.star.drawing.ClosedBezierShape">
        <g id="id11">
         <rect class="BoundingBox" stroke="none" fill="none" x="2618" y="794" width="936" height="1094"/>
         <path fill="rgb(0,0,0)" stroke="none" d="M 3165,1887 C 3025,1887 2885,1833 2777,1726 2674,1623 2618,1486 2618,1339 2618,1194 2674,1056 2777,953 2991,741 3339,741 3552,953 L 3360,1145 C 3252,1037 3078,1038 2970,1145 2918,1196 2890,1265 2890,1339 2890,1414 2918,1483 2970,1535 3078,1642 3252,1642 3360,1535 L 3552,1726 C 3446,1833 3305,1887 3165,1887 Z"/>
        </g>
       </g>
      </g>
      <g class="Group">
       <g class="com.sun.star.drawing.ClosedBezierShape">
        <g id="id12">
         <rect class="BoundingBox" stroke="none" fill="none" x="799" y="3484" width="276" height="316"/>
         <path fill="rgb(0,0,0)" stroke="none" d="M 1002,3603 C 1002,3669 1002,3734 1002,3799 1026,3799 1050,3799 1074,3799 1074,3694 1074,3589 1074,3484 1053,3484 1032,3484 1011,3484 964,3549 918,3615 871,3680 871,3615 871,3549 871,3484 847,3484 823,3484 799,3484 799,3589 799,3694 799,3799 820,3799 841,3799 862,3799 909,3734 955,3669 1002,3603 Z"/>
        </g>
       </g>
       <g class="com.sun.star.drawing.ClosedBezierShape">
        <g id="id13">
         <rect class="BoundingBox" stroke="none" fill="none" x="1157" y="3481" width="212" height="321"/>
         <path fill="rgb(0,0,0)" stroke="none" d="M 1157,3798 C 1175,3800 1206,3801 1248,3801 1283,3801 1312,3793 1334,3776 1356,3760 1367,3735 1367,3704 1367,3685 1363,3669 1354,3657 1346,3645 1335,3636 1322,3632 L 1322,3631 C 1346,3615 1358,3591 1358,3560 1358,3537 1350,3518 1332,3504 1315,3490 1288,3482 1252,3482 1224,3482 1192,3483 1157,3485 L 1157,3798 Z M 1257,3672 C 1283,3672 1295,3681 1295,3700 1295,3722 1281,3733 1253,3733 1244,3733 1236,3732 1229,3731 L 1229,3672 1257,3672 Z M 1252,3550 C 1262,3550 1270,3552 1276,3557 1283,3562 1286,3569 1286,3578 1286,3598 1275,3609 1253,3609 L 1229,3609 1229,3551 C 1240,3550 1247,3549 1252,3550 Z"/>
        </g>
       </g>
       <g class="com.sun.star.drawing.ClosedBezierShape">
        <g id="id14">
         <rect class="BoundingBox" stroke="none" fill="none" x="1395" y="3484" width="328" height="316"/>
         <path fill="rgb(0,0,0)" stroke="none" d="M 1468,3799 C 1476,3777 1485,3755 1494,3733 1535,3733 1577,3733 1618,3733 1627,3755 1636,3777 1645,3799 1670,3799 1696,3799 1722,3799 1678,3694 1634,3589 1590,3484 1569,3484 1548,3484 1526,3484 1482,3589 1439,3694 1395,3799 1419,3799 1443,3799 1468,3799 Z M 1591,3666 C 1568,3666 1544,3666 1521,3666 1533,3636 1544,3606 1556,3576 1568,3606 1580,3636 1591,3666 Z"/>
        </g>
       </g>
       <g class="com.sun.star.drawing.ClosedBezierShape">
        <g id="id15">
         <rect class="BoundingBox" stroke="none" fill="none" x="1766" y="3484" width="260" height="316"/>
         <path fill="rgb(0,0,0)" stroke="none" d="M 2025,3799 C 2025,3694 2025,3589 2025,3484 2001,3484 1977,3484 1953,3484 1953,3524 1953,3564 1953,3605 1915,3605 1876,3605 1838,3605 1838,3564 1838,3524 1838,3484 1814,3484 1790,3484 1766,3484 1766,3589 1766,3694 1766,3799 1790,3799 1814,3799 1838,3799 1838,3757 1838,3715 1838,3672 1876,3672 1915,3672 1953,3672 1953,3715 1953,3757 1953,3799 1977,3799 2001,3799 2025,3799 Z"/>
        </g>
       </g>
       <g class="com.sun.star.drawing.ClosedBezierShape">
        <g id="id16">
         <rect class="BoundingBox" stroke="none" fill="none" x="2088" y="3478" width="336" height="328"/>
         <path fill="rgb(0,0,0)" stroke="none" d="M 2088,3641 C 2088,3690 2104,3730 2135,3760 2166,3789 2207,3804 2256,3804 2304,3804 2344,3789 2375,3758 2407,3727 2423,3688 2423,3641 2423,3592 2407,3552 2376,3523 2345,3493 2305,3478 2256,3478 2206,3478 2166,3494 2134,3525 2103,3556 2088,3595 2088,3641 Z M 2165,3641 C 2165,3613 2173,3590 2190,3572 2207,3554 2229,3546 2256,3546 2281,3546 2303,3554 2320,3572 2338,3590 2347,3613 2347,3641 2346,3669 2339,3692 2323,3710 2307,3728 2284,3736 2256,3737 2230,3737 2209,3727 2191,3709 2174,3691 2165,3668 2165,3641 Z"/>
        </g>
       </g>
       <g class="com.sun.star.drawing.ClosedBezierShape">
        <g id="id17">
         <rect class="BoundingBox" stroke="none" fill="none" x="2483" y="3481" width="211" height="321"/>
         <path fill="rgb(0,0,0)" stroke="none" d="M 2483,3798 C 2501,3800 2532,3801 2574,3801 2609,3801 2638,3793 2660,3776 2682,3760 2693,3735 2693,3704 2693,3685 2689,3669 2680,3657 2672,3645 2661,3636 2648,3632 L 2648,3631 C 2672,3615 2684,3591 2684,3560 2684,3537 2676,3518 2658,3504 2641,3490 2614,3482 2578,3482 2550,3482 2518,3483 2483,3485 L 2483,3798 Z M 2583,3672 C 2609,3672 2621,3681 2621,3700 2621,3722 2607,3733 2579,3733 2570,3733 2562,3732 2555,3731 L 2555,3672 2583,3672 Z M 2578,3550 C 2588,3550 2596,3552 2602,3557 2609,3562 2612,3569 2612,3578 2612,3598 2601,3609 2579,3609 L 2555,3609 2555,3551 C 2566,3550 2573,3549 2578,3550 Z"/>
        </g>
       </g>
       <g class="com.sun.star.drawing.ClosedBezierShape">
        <g id="id18">
         <rect class="BoundingBox" stroke="none" fill="none" x="2739" y="3478" width="269" height="328"/>
         <path fill="rgb(0,0,0)" stroke="none" d="M 2980,3714 C 2959,3729 2936,3737 2911,3737 2883,3736 2860,3728 2842,3710 2825,3692 2816,3669 2816,3641 2815,3611 2824,3587 2840,3571 2857,3554 2878,3546 2904,3546 2926,3545 2947,3552 2968,3565 L 3000,3511 C 2990,3501 2977,3493 2960,3487 2943,3481 2924,3478 2904,3478 2852,3478 2811,3493 2782,3524 2753,3555 2739,3594 2739,3641 2739,3690 2754,3729 2785,3760 2815,3789 2855,3804 2904,3804 2925,3804 2945,3801 2964,3794 2983,3787 2997,3779 3007,3768 L 2980,3714 Z"/>
        </g>
       </g>
       <g class="com.sun.star.drawing.ClosedBezierShape">
        <g id="id19">
         <rect class="BoundingBox" stroke="none" fill="none" x="3058" y="3484" width="272" height="316"/>
         <path fill="rgb(0,0,0)" stroke="none" d="M 3130,3799 C 3130,3749 3130,3699 3130,3649 3166,3699 3202,3749 3238,3799 3268,3799 3299,3799 3329,3799 3287,3743 3244,3686 3201,3629 3241,3581 3280,3532 3320,3484 3291,3484 3262,3484 3233,3484 3199,3530 3164,3576 3130,3621 3130,3576 3130,3530 3130,3484 3106,3484 3082,3484 3058,3484 3058,3589 3058,3694 3058,3799 3082,3799 3106,3799 3130,3799 Z"/>
        </g>
       </g>
       <g class="com.sun.star.drawing.ClosedBezierShape">
        <g id="id20">
         <rect class="BoundingBox" stroke="none" fill="none" x="3370" y="3484" width="276" height="316"/>
         <path fill="rgb(0,0,0)" stroke="none" d="M 3573,3603 C 3573,3669 3573,3734 3573,3799 3597,3799 3621,3799 3645,3799 3645,3694 3645,3589 3645,3484 3624,3484 3603,3484 3582,3484 3535,3549 3489,3615 3442,3680 3442,3615 3442,3549 3442,3484 3418,3484 3394,3484 3370,3484 3370,3589 3370,3694 3370,3799 3391,3799 3412,3799 3433,3799 3480,3734 3526,3669 3573,3603 Z"/>
        </g>
       </g>
       <g class="com.sun.star.drawing.ClosedBezierShape">
        <g id="id21">
         <rect class="BoundingBox" stroke="none" fill="none" x="3727" y="3403" width="276" height="397"/>
         <path fill="rgb(0,0,0)" stroke="none" d="M 3930,3603 L 3930,3799 4002,3799 4002,3484 3939,3484 3799,3680 3799,3484 3727,3484 3727,3799 3790,3799 3930,3603 Z M 3777,3403 C 3777,3425 3785,3443 3802,3455 3818,3468 3842,3475 3872,3475 3900,3475 3923,3468 3940,3455 3958,3442 3966,3425 3966,3403 L 3898,3403 C 3898,3412 3896,3418 3892,3421 3888,3424 3881,3426 3872,3426 3862,3426 3855,3424 3850,3421 3846,3417 3844,3411 3844,3403 L 3777,3403 Z"/>
        </g>
       </g>
       <g class="com.sun.star.drawing.ClosedBezierShape">
        <g id="id22">
         <rect class="BoundingBox" stroke="none" fill="none" x="4173" y="3484" width="296" height="370"/>
         <path fill="rgb(0,0,0)" stroke="none" d="M 4400,3799 C 4400,3817 4400,3835 4400,3853 4423,3853 4446,3853 4468,3853 4468,3813 4468,3772 4468,3732 4454,3732 4440,3732 4425,3732 4425,3649 4425,3567 4425,3484 4401,3484 4377,3484 4353,3484 4353,3567 4353,3649 4353,3732 4317,3732 4281,3732 4245,3732 4245,3649 4245,3567 4245,3484 4221,3484 4197,3484 4173,3484 4173,3589 4173,3694 4173,3799 4249,3799 4325,3799 4400,3799 Z"/>
        </g>
       </g>
       <g class="com.sun.star.drawing.ClosedBezierShape">
        <g id="id23">
         <rect class="BoundingBox" stroke="none" fill="none" x="4489" y="3478" width="269" height="328"/>
         <path fill="rgb(0,0,0)" stroke="none" d="M 4730,3714 C 4709,3729 4686,3737 4661,3737 4633,3736 4610,3728 4592,3710 4575,3692 4566,3669 4566,3641 4565,3611 4574,3587 4590,3571 4607,3554 4628,3546 4654,3546 4676,3545 4697,3552 4718,3565 L 4750,3511 C 4740,3501 4727,3493 4710,3487 4693,3481 4674,3478 4654,3478 4602,3478 4561,3493 4532,3524 4503,3555 4489,3594 4489,3641 4489,3690 4504,3729 4535,3760 4565,3789 4605,3804 4654,3804 4675,3804 4695,3801 4714,3794 4733,3787 4747,3779 4757,3768 L 4730,3714 Z"/>
        </g>
       </g>
       <g class="com.sun.star.drawing.ClosedBezierShape">
        <g id="id24">
         <rect class="BoundingBox" stroke="none" fill="none" x="4809" y="3484" width="331" height="316"/>
         <path fill="rgb(0,0,0)" stroke="none" d="M 4881,3799 C 4881,3733 4881,3666 4881,3600 4910,3640 4939,3681 4968,3721 4972,3721 4975,3721 4979,3721 5008,3680 5037,3639 5067,3598 5067,3665 5067,3732 5067,3799 5091,3799 5115,3799 5139,3799 5139,3694 5139,3589 5139,3484 5116,3484 5093,3484 5071,3484 5040,3528 5009,3573 4979,3617 4946,3573 4914,3528 4882,3484 4857,3484 4833,3484 4809,3484 4809,3589 4809,3694 4809,3799 4833,3799 4857,3799 4881,3799 Z"/>
        </g>
       </g>
      </g>
     </g>
    </g>
   </g>
  </g>
 </g>
</svg>