<?xml version="1.0" encoding="UTF-8" standalone="no"?>
<!-- Created with Inkscape (http://www.inkscape.org/) -->

<svg xmlns:dc="http://purl.org/dc/elements/1.1/" xmlns:cc="http://creativecommons.org/ns#"
	xmlns:rdf="http://www.w3.org/1999/02/22-rdf-syntax-ns#" xmlns:svg="http://www.w3.org/2000/svg"
	xmlns="http://www.w3.org/2000/svg" xmlns:sodipodi="http://sodipodi.sourceforge.net/DTD/sodipodi-0.dtd"
	xmlns:inkscape="http://www.inkscape.org/namespaces/inkscape" width="464" height="462" version="1.1"
	inkscape:version="0.48.5 r10040" sodipodi:docname="Логотип ФБУ Ивановский ЦСМ">
	<g inkscape:label="Layer 1" inkscape:groupmode="layer" id="layer1">
		<g style="fill-rule:evenodd;fill:#000000;fill-opacity:1" id="g3055" transform="translate(-66, -190)">

			<!-- 1927 -->
			<path id="path2991"
				d="m 292.749,357.854 c -0.62,0 -1.172,0.12 -1.631,0.336 -0.459,0.24 -0.849,0.576 -1.148,0.984 -0.299,0.432 -0.528,0.936 -0.666,1.512 -0.161,0.576 -0.23,1.199 -0.23,1.895 0,0.744 0.069,1.392 0.184,1.968 0.138,0.576 0.345,1.032 0.62,1.415 0.276,0.36 0.62,0.648 1.08,0.84 0.436,0.168 0.987,0.264 1.607,0.264 0.781,0 1.517,-0.12 2.205,-0.36 0.713,-0.264 1.31,-0.576 1.861,-0.983 0,-1.512 -0.092,-2.76 -0.253,-3.791 -0.16,-1.008 -0.39,-1.8 -0.712,-2.424 -0.321,-0.6 -0.735,-1.032 -1.217,-1.272 -0.483,-0.264 -1.057,-0.384 -1.7,-0.384 z m 34.156,-3.767 15.526,0 c 0.254,0 0.46,0.024 0.621,0.072 0.161,0.048 0.275,0.144 0.367,0.312 0.092,0.168 0.184,0.408 0.23,0.72 0.046,0.312 0.069,0.72 0.069,1.224 0,0.407 -0.023,0.768 -0.046,1.079 -0.023,0.289 -0.069,0.576 -0.115,0.84 -0.046,0.264 -0.115,0.504 -0.184,0.72 -0.091,0.24 -0.183,0.504 -0.298,0.768 l -8.591,20.803 c -0.068,0.192 -0.184,0.336 -0.322,0.456 -0.114,0.095 -0.298,0.192 -0.528,0.264 -0.229,0.048 -0.528,0.095 -0.872,0.12 -0.368,0.024 -0.804,0.024 -1.333,0.024 -0.712,0 -1.263,-0.024 -1.699,-0.072 -0.414,-0.048 -0.713,-0.12 -0.919,-0.241 -0.184,-0.095 -0.299,-0.239 -0.299,-0.383 -0.023,-0.168 0.023,-0.36 0.138,-0.6 l 9.257,-21.307 -11.002,0 c -0.276,0 -0.483,-0.192 -0.621,-0.576 -0.137,-0.384 -0.206,-1.008 -0.206,-1.848 0,-0.431 0,-0.791 0.045,-1.079 0.047,-0.312 0.092,-0.552 0.184,-0.768 0.069,-0.192 0.161,-0.336 0.253,-0.408 0.092,-0.096 0.229,-0.12 0.345,-0.12 z m -53.68,-0.191 c 0.506,0 0.919,0 1.24,0.023 0.299,0.024 0.552,0.048 0.713,0.096 0.16,0.049 0.275,0.12 0.321,0.216 0.047,0.072 0.069,0.192 0.069,0.312 l 0,22.531 4.272,0 c 0.115,0 0.23,0.047 0.322,0.12 0.115,0.095 0.207,0.216 0.276,0.384 0.069,0.168 0.114,0.383 0.161,0.647 0.022,0.289 0.045,0.624 0.045,1.032 0,0.384 -0.023,0.72 -0.069,1.008 -0.023,0.264 -0.092,0.48 -0.161,0.648 -0.068,0.168 -0.16,0.288 -0.252,0.36 -0.092,0.048 -0.207,0.096 -0.322,0.096 l -14.424,0 c -0.092,0 -0.207,-0.048 -0.299,-0.096 -0.092,-0.072 -0.184,-0.192 -0.253,-0.36 -0.068,-0.168 -0.137,-0.384 -0.161,-0.648 -0.045,-0.288 -0.068,-0.624 -0.068,-1.008 0,-0.408 0.023,-0.743 0.046,-1.032 0.046,-0.264 0.091,-0.479 0.16,-0.647 0.07,-0.168 0.161,-0.289 0.253,-0.384 0.092,-0.073 0.207,-0.12 0.322,-0.12 l 4.869,0 0,-17.756 -4.203,2.448 c -0.299,0.143 -0.552,0.239 -0.758,0.264 -0.184,0.047 -0.344,0 -0.46,-0.121 -0.114,-0.12 -0.183,-0.336 -0.229,-0.624 -0.046,-0.287 -0.069,-0.695 -0.069,-1.247 0,-0.336 0.023,-0.6 0.023,-0.816 0.023,-0.216 0.046,-0.408 0.114,-0.576 0.047,-0.144 0.116,-0.263 0.208,-0.36 0.091,-0.12 0.229,-0.216 0.39,-0.335 l 5.604,-3.792 c 0.069,-0.048 0.161,-0.095 0.253,-0.144 0.115,-0.024 0.23,-0.048 0.413,-0.072 0.161,-0.024 0.368,-0.047 0.621,-0.047 0.275,0 0.597,0 1.033,0 z m 40.403,-0.313 c 1.378,0 2.55,0.192 3.583,0.552 1.011,0.36 1.861,0.864 2.527,1.488 0.666,0.648 1.171,1.392 1.493,2.279 0.344,0.888 0.505,1.824 0.505,2.832 0,0.887 -0.092,1.775 -0.252,2.615 -0.161,0.864 -0.483,1.8 -1.011,2.783 -0.505,0.984 -1.217,2.088 -2.159,3.287 -0.919,1.2 -2.159,2.592 -3.698,4.176 l -3.032,3.287 10.29,0 c 0.138,0 0.253,0.024 0.367,0.12 0.116,0.072 0.23,0.216 0.299,0.384 0.092,0.192 0.138,0.407 0.184,0.696 0.046,0.288 0.069,0.623 0.069,1.032 0,0.407 -0.023,0.743 -0.069,1.031 -0.023,0.288 -0.069,0.528 -0.138,0.72 -0.068,0.168 -0.16,0.311 -0.276,0.384 -0.091,0.072 -0.229,0.12 -0.344,0.12 l -15.022,0 c -0.298,0 -0.551,-0.024 -0.781,-0.096 -0.207,-0.048 -0.39,-0.144 -0.528,-0.312 -0.115,-0.168 -0.23,-0.408 -0.276,-0.72 -0.069,-0.312 -0.092,-0.695 -0.092,-1.199 0,-0.457 0.023,-0.864 0.047,-1.176 0.045,-0.337 0.114,-0.648 0.229,-0.888 0.115,-0.264 0.252,-0.528 0.413,-0.768 0.161,-0.24 0.391,-0.528 0.666,-0.816 l 4.503,-5.063 c 0.918,-0.984 1.631,-1.871 2.181,-2.687 0.552,-0.816 0.988,-1.536 1.31,-2.208 0.299,-0.672 0.505,-1.295 0.62,-1.847 0.115,-0.552 0.184,-1.104 0.184,-1.608 0,-0.455 -0.069,-0.887 -0.207,-1.319 -0.161,-0.408 -0.367,-0.768 -0.643,-1.08 -0.276,-0.312 -0.62,-0.552 -1.034,-0.72 -0.413,-0.192 -0.918,-0.264 -1.47,-0.264 -0.803,0 -1.493,0.096 -2.113,0.312 -0.62,0.216 -1.148,0.432 -1.608,0.696 -0.482,0.264 -0.85,0.504 -1.171,0.72 -0.299,0.216 -0.552,0.336 -0.713,0.336 -0.137,0 -0.229,-0.049 -0.32,-0.12 -0.093,-0.097 -0.161,-0.24 -0.208,-0.432 -0.069,-0.192 -0.114,-0.456 -0.138,-0.792 -0.022,-0.336 -0.045,-0.744 -0.045,-1.224 0,-0.311 0,-0.575 0.023,-0.792 0.022,-0.215 0.046,-0.408 0.091,-0.576 0.047,-0.168 0.092,-0.311 0.161,-0.432 0.069,-0.119 0.184,-0.263 0.345,-0.431 0.184,-0.168 0.482,-0.384 0.942,-0.648 0.459,-0.24 1.01,-0.504 1.654,-0.744 0.666,-0.24 1.401,-0.456 2.181,-0.624 0.805,-0.168 1.631,-0.264 2.481,-0.264 z m -20.603,0 c 1.217,0 2.273,0.168 3.193,0.456 0.895,0.288 1.676,0.72 2.342,1.272 0.644,0.528 1.195,1.2 1.631,1.991 0.437,0.768 0.781,1.632 1.034,2.592 0.252,0.96 0.413,1.991 0.528,3.095 0.092,1.128 0.138,2.279 0.138,3.479 0,1.128 -0.046,2.28 -0.161,3.455 -0.115,1.2 -0.298,2.352 -0.62,3.504 -0.299,1.128 -0.712,2.207 -1.24,3.239 -0.529,1.032 -1.218,1.919 -2.067,2.687 -0.827,0.768 -1.861,1.368 -3.055,1.823 -1.218,0.457 -2.642,0.673 -4.273,0.673 -0.574,0 -1.171,-0.048 -1.723,-0.12 -0.574,-0.096 -1.102,-0.192 -1.584,-0.312 -0.459,-0.144 -0.85,-0.264 -1.195,-0.409 -0.321,-0.143 -0.574,-0.287 -0.712,-0.431 -0.138,-0.144 -0.252,-0.36 -0.321,-0.648 -0.069,-0.288 -0.092,-0.672 -0.092,-1.176 0,-0.456 0,-0.839 0.023,-1.128 0.023,-0.263 0.046,-0.479 0.115,-0.647 0.069,-0.144 0.137,-0.264 0.229,-0.312 0.092,-0.048 0.184,-0.072 0.299,-0.072 0.161,0 0.39,0.048 0.689,0.144 0.298,0.12 0.666,0.216 1.079,0.336 0.437,0.144 0.92,0.24 1.448,0.36 0.551,0.095 1.148,0.144 1.791,0.144 1.149,0 2.09,-0.216 2.871,-0.648 0.781,-0.408 1.425,-0.984 1.906,-1.703 0.483,-0.721 0.827,-1.536 1.057,-2.496 0.23,-0.936 0.368,-1.92 0.391,-2.952 -0.621,0.384 -1.355,0.744 -2.228,1.056 -0.896,0.288 -1.884,0.456 -3.009,0.456 -1.401,0 -2.573,-0.192 -3.537,-0.576 -0.965,-0.384 -1.769,-0.936 -2.366,-1.632 -0.597,-0.719 -1.057,-1.607 -1.333,-2.615 -0.275,-1.032 -0.413,-2.207 -0.413,-3.503 0,-1.344 0.207,-2.615 0.597,-3.743 0.391,-1.152 0.965,-2.135 1.723,-2.975 0.781,-0.84 1.723,-1.488 2.871,-1.968 1.149,-0.456 2.481,-0.696 3.974,-0.696 z"
				inkscape:connector-curvature="0" />
			<!-- <text id="text_1927" style="font: bold 30pt sans-serif;" text-anchor="middle" x="304" y="382">1927</text> -->

			<!-- рамка -->
			<path id="path_ramka"
				d="m 138.832,191.542 317.611,0 c 19.411,0 37.067,7.946 49.859,20.739 12.792,12.792 20.738,30.448 20.738,49.858 l 0,317.611 c 0,19.411 -7.946,37.067 -20.738,49.859 -12.792,12.792 -30.448,20.738 -49.859,20.738 l -317.611,0 c -19.411,0 -37.066,-7.946 -49.8585,-20.738 C 76.1814,616.817 68.2353,599.161 68.2353,579.75 l 0,-317.611 c 0,-19.41 7.9461,-37.066 20.7382,-49.858 12.7925,-12.793 30.4475,-20.739 49.8585,-20.739 z m 317.611,13.398 -317.611,0 c -15.731,0 -30.038,6.441 -40.3981,16.801 -10.3602,10.36 -16.8007,24.667 -16.8007,40.398 l 0,317.611 c 0,15.732 6.4405,30.039 16.8007,40.399 10.3601,10.36 24.6671,16.801 40.3981,16.801 l 317.611,0 c 15.732,0 30.039,-6.441 40.399,-16.801 10.36,-10.36 16.8,-24.667 16.8,-40.399 l 0,-317.611 c 0,-15.731 -6.44,-30.038 -16.8,-40.398 -10.36,-10.36 -24.667,-16.801 -40.399,-16.801 z"
				inkscape:connector-curvature="0" />

			<!-- Ивановский ЦСМ -->
			<path id="path2995"
				d="m 104.453,355.332 10.956,7.942 c 0.528,-1.08 0.873,-2.04 1.011,-2.951 0.137,-0.912 0.092,-1.727 -0.115,-2.495 -0.207,-0.768 -0.551,-1.464 -1.034,-2.112 -0.505,-0.624 -1.079,-1.2 -1.769,-1.68 -0.78,-0.576 -1.538,-0.984 -2.296,-1.271 -0.759,-0.288 -1.517,-0.384 -2.252,-0.313 -0.734,0.072 -1.469,0.336 -2.228,0.793 -0.734,0.479 -1.493,1.175 -2.273,2.087 z m -3.239,4.871 c -0.551,1.055 -0.896,2.039 -1.01,2.951 -0.138,0.912 -0.116,1.727 0.091,2.472 0.184,0.767 0.528,1.439 1.011,2.063 0.459,0.624 1.033,1.175 1.699,1.656 0.804,0.576 1.609,1.008 2.366,1.295 0.782,0.288 1.54,0.384 2.275,0.336 0.758,-0.072 1.515,-0.336 2.251,-0.791 0.757,-0.457 1.515,-1.153 2.273,-2.064 l -10.956,-7.918 z m -5.3519,-7.486 c 0.2989,-0.48 0.5971,-0.864 0.8269,-1.176 0.2527,-0.312 0.4597,-0.528 0.6433,-0.696 0.1836,-0.144 0.3217,-0.24 0.4825,-0.264 0.1374,0 0.2526,0.024 0.39,0.12 l 2.6182,1.896 c 1.218,-1.632 2.458,-2.952 3.721,-3.935 1.264,-0.984 2.55,-1.656 3.882,-1.992 1.31,-0.336 2.665,-0.312 4.043,0.024 1.378,0.336 2.78,1.032 4.203,2.064 1.355,0.983 2.412,2.087 3.216,3.311 0.804,1.223 1.31,2.567 1.516,4.007 0.23,1.463 0.138,2.999 -0.23,4.631 -0.367,1.655 -1.057,3.359 -2.044,5.134 l 2.779,2.016 c 0.115,0.096 0.207,0.216 0.23,0.36 0.046,0.144 0.023,0.336 -0.046,0.552 -0.069,0.24 -0.207,0.527 -0.39,0.863 -0.184,0.361 -0.437,0.768 -0.759,1.248 -0.321,0.48 -0.597,0.864 -0.849,1.176 -0.23,0.288 -0.437,0.528 -0.62,0.672 -0.184,0.144 -0.345,0.24 -0.483,0.264 -0.138,0.024 -0.276,-0.024 -0.413,-0.12 l -2.78,-2.015 c -1.194,1.655 -2.434,2.975 -3.674,3.983 -1.264,1.007 -2.55,1.655 -3.882,1.967 -1.332,0.336 -2.688,0.312 -4.089,-0.048 -1.401,-0.36 -2.848,-1.08 -4.341,-2.16 -1.2631,-0.912 -2.2971,-1.991 -3.055,-3.191 -0.7813,-1.223 -1.2631,-2.544 -1.4929,-3.983 -0.2071,-1.463 -0.138,-2.999 0.2064,-4.655 0.3679,-1.631 1.0339,-3.359 2.0216,-5.159 l -2.6187,-1.895 c -0.1146,-0.096 -0.2064,-0.216 -0.2298,-0.36 -0.0228,-0.144 0,-0.336 0.069,-0.552 0.069,-0.24 0.2071,-0.527 0.3907,-0.863 0.1836,-0.336 0.4362,-0.745 0.7578,-1.224 z m 29.5619,-11.086 6.546,5.471 2.434,-3.143 c 0.597,-0.792 1.011,-1.488 1.264,-2.112 0.253,-0.624 0.345,-1.223 0.345,-1.799 -0.024,-0.6 -0.161,-1.152 -0.437,-1.68 -0.253,-0.552 -0.643,-1.032 -1.149,-1.464 -0.505,-0.407 -1.033,-0.696 -1.561,-0.864 -0.529,-0.167 -1.08,-0.215 -1.608,-0.119 -0.552,0.095 -1.08,0.336 -1.631,0.719 -0.551,0.408 -1.172,1.032 -1.838,1.896 l -2.365,3.095 z m -15.298,-7.174 10.267,-13.437 c 0.092,-0.12 0.207,-0.216 0.345,-0.263 0.114,-0.025 0.299,-0.025 0.482,0.023 0.207,0.048 0.437,0.168 0.689,0.336 0.23,0.144 0.552,0.384 0.896,0.672 0.322,0.264 0.597,0.528 0.804,0.744 0.207,0.216 0.345,0.432 0.436,0.6 0.092,0.191 0.139,0.359 0.139,0.504 0,0.144 -0.047,0.287 -0.139,0.383 l -7.671,10.054 5.65,4.727 3.009,-3.935 c 1.171,-1.536 2.274,-2.687 3.308,-3.431 1.056,-0.768 2.09,-1.248 3.169,-1.488 1.08,-0.216 2.159,-0.192 3.239,0.12 1.079,0.288 2.113,0.864 3.124,1.704 1.034,0.863 1.837,1.823 2.411,2.903 0.575,1.08 0.874,2.256 0.943,3.527 0.069,1.248 -0.161,2.591 -0.69,4.031 -0.505,1.416 -1.469,3.047 -2.848,4.847 l -4.778,6.263 c -0.344,0.455 -0.735,0.719 -1.171,0.791 -0.436,0.096 -0.919,-0.096 -1.47,-0.551 l -19.776,-16.484 c -0.506,-0.432 -0.781,-0.889 -0.805,-1.344 0,-0.48 0.138,-0.912 0.437,-1.296 z M 125.24,314.83 c 0.459,-0.552 0.85,-0.984 1.148,-1.272 0.322,-0.312 0.597,-0.528 0.827,-0.648 0.253,-0.144 0.482,-0.192 0.712,-0.144 0.23,0.024 0.506,0.096 0.827,0.192 l 9.257,3.048 c 0.988,0.311 1.975,0.647 2.94,1.007 0.964,0.336 1.929,0.696 2.894,1.08 l 0.046,-0.048 c -0.552,-0.936 -1.057,-1.872 -1.516,-2.807 -0.482,-0.912 -0.965,-1.92 -1.47,-2.952 l -4.364,-8.902 c -0.092,-0.192 -0.161,-0.384 -0.161,-0.575 -0.023,-0.168 0.023,-0.385 0.138,-0.624 0.092,-0.24 0.298,-0.529 0.551,-0.864 0.276,-0.336 0.62,-0.768 1.08,-1.296 0.459,-0.528 0.85,-0.935 1.148,-1.224 0.321,-0.264 0.574,-0.432 0.804,-0.479 0.207,-0.049 0.391,0 0.551,0.168 0.161,0.168 0.322,0.432 0.483,0.791 l 9.118,19.723 c 0.804,1.704 1.402,3.168 1.769,4.44 0.39,1.247 0.551,2.399 0.551,3.407 -0.023,1.008 -0.23,1.919 -0.643,2.759 -0.391,0.84 -0.965,1.704 -1.723,2.543 -0.252,0.312 -0.551,0.6 -0.85,0.864 -0.298,0.265 -0.597,0.504 -0.895,0.696 -0.299,0.216 -0.575,0.36 -0.85,0.48 -0.253,0.12 -0.46,0.168 -0.621,0.192 -0.16,0.024 -0.298,0.024 -0.436,-0.024 -0.161,-0.048 -0.321,-0.12 -0.505,-0.216 -0.184,-0.12 -0.391,-0.288 -0.643,-0.504 -0.253,-0.192 -0.575,-0.48 -0.919,-0.816 -0.643,-0.6 -1.057,-1.079 -1.24,-1.439 -0.184,-0.36 -0.184,-0.648 0,-0.864 0.091,-0.096 0.229,-0.168 0.413,-0.24 0.184,-0.048 0.413,-0.12 0.643,-0.216 0.253,-0.096 0.506,-0.216 0.804,-0.384 0.276,-0.168 0.551,-0.432 0.827,-0.744 0.207,-0.24 0.39,-0.504 0.528,-0.743 0.115,-0.264 0.207,-0.553 0.23,-0.864 0,-0.336 -0.023,-0.696 -0.138,-1.128 -0.092,-0.456 -0.252,-0.96 -0.505,-1.584 l -20.833,-6.334 c -0.505,-0.144 -0.85,-0.336 -1.103,-0.504 -0.229,-0.168 -0.367,-0.384 -0.367,-0.648 0,-0.264 0.138,-0.576 0.39,-0.936 0.23,-0.359 0.597,-0.816 1.103,-1.367 z m 42.7,-32.201 c 0.39,-0.36 0.735,-0.647 1.033,-0.84 0.276,-0.192 0.529,-0.311 0.712,-0.335 0.184,-0.048 0.322,0 0.437,0.096 0.091,0.096 0.16,0.264 0.229,0.479 l 2.09,9.191 8.913,3.358 c 0.183,0.072 0.298,0.168 0.39,0.265 0.069,0.119 0.069,0.264 0.023,0.432 -0.069,0.191 -0.207,0.407 -0.436,0.671 -0.23,0.288 -0.529,0.6 -0.942,0.984 -0.322,0.288 -0.597,0.528 -0.804,0.72 -0.23,0.168 -0.413,0.312 -0.597,0.383 -0.161,0.072 -0.299,0.121 -0.437,0.144 -0.114,0 -0.252,-0.023 -0.39,-0.072 l -8.889,-2.639 c -0.345,-0.12 -0.643,-0.288 -0.85,-0.552 -0.207,-0.264 -0.345,-0.624 -0.413,-1.103 l -1.425,-8.974 c -0.023,-0.144 -0.023,-0.288 0,-0.432 0,-0.144 0.069,-0.312 0.161,-0.456 0.092,-0.168 0.23,-0.36 0.413,-0.552 0.185,-0.216 0.437,-0.456 0.782,-0.768 z m -7.121,5.879 c 0.39,-0.36 0.735,-0.648 1.034,-0.84 0.275,-0.192 0.528,-0.312 0.712,-0.312 0.206,-0.024 0.344,0.024 0.459,0.12 0.115,0.096 0.184,0.264 0.253,0.504 l 2.274,9.621 9.073,3.624 c 0.206,0.096 0.367,0.192 0.459,0.312 0.092,0.144 0.138,0.287 0.069,0.48 -0.046,0.192 -0.161,0.432 -0.367,0.72 -0.207,0.263 -0.529,0.599 -0.942,0.983 -0.322,0.288 -0.597,0.528 -0.827,0.696 -0.23,0.168 -0.437,0.288 -0.597,0.384 -0.161,0.072 -0.322,0.12 -0.46,0.12 -0.161,0 -0.298,-0.048 -0.436,-0.096 l -9.211,-2.951 c -0.368,-0.12 -0.643,-0.312 -0.873,-0.576 -0.206,-0.264 -0.344,-0.624 -0.413,-1.08 l -1.585,-9.406 c 0,-0.168 -0.023,-0.336 0,-0.48 0,-0.143 0.046,-0.287 0.161,-0.455 0.092,-0.168 0.23,-0.36 0.413,-0.577 0.207,-0.215 0.459,-0.479 0.804,-0.791 z m 12.288,-21.451 c 0.46,-0.36 0.874,-0.648 1.195,-0.84 0.322,-0.192 0.597,-0.336 0.827,-0.408 0.229,-0.071 0.414,-0.096 0.551,-0.048 0.138,0.048 0.253,0.12 0.345,0.24 l 9.027,13.053 c 0.275,0.408 0.574,0.84 0.872,1.32 0.299,0.455 0.597,0.912 0.873,1.368 l 0.023,-0.024 c -0.045,-0.529 -0.092,-1.2 -0.161,-1.968 -0.045,-0.768 -0.069,-1.536 -0.091,-2.304 l -0.644,-18.955 c 0,-0.192 0.024,-0.36 0.047,-0.528 0.022,-0.168 0.114,-0.36 0.229,-0.552 0.115,-0.168 0.299,-0.383 0.506,-0.575 0.229,-0.217 0.528,-0.457 0.918,-0.744 0.459,-0.36 0.827,-0.624 1.149,-0.792 0.298,-0.192 0.574,-0.312 0.781,-0.384 0.207,-0.072 0.39,-0.072 0.528,-0.024 0.115,0.048 0.229,0.12 0.321,0.264 l 16.148,23.322 c 0.092,0.12 0.115,0.264 0.115,0.408 -0.023,0.168 -0.092,0.336 -0.23,0.528 -0.138,0.216 -0.345,0.456 -0.643,0.72 -0.276,0.264 -0.667,0.552 -1.126,0.912 -0.459,0.36 -0.849,0.623 -1.194,0.815 -0.321,0.217 -0.597,0.336 -0.827,0.408 -0.207,0.072 -0.39,0.096 -0.528,0.049 -0.138,-0.025 -0.253,-0.121 -0.345,-0.24 l -8.981,-12.982 c -0.344,-0.503 -0.666,-0.983 -0.988,-1.463 -0.321,-0.48 -0.597,-0.936 -0.827,-1.32 l -0.022,0.024 c 0.022,0.264 0.046,0.552 0.069,0.888 0.045,0.336 0.069,0.696 0.091,1.08 0.023,0.359 0.047,0.744 0.07,1.152 0.022,0.407 0.022,0.791 0.045,1.175 l 0.643,18.956 c 0,0.215 -0.022,0.407 -0.069,0.6 -0.022,0.168 -0.091,0.36 -0.229,0.528 -0.115,0.191 -0.299,0.383 -0.529,0.575 -0.206,0.192 -0.505,0.432 -0.895,0.72 -0.459,0.36 -0.873,0.624 -1.172,0.816 -0.321,0.192 -0.574,0.312 -0.78,0.384 -0.207,0.048 -0.391,0.048 -0.506,0 -0.138,-0.048 -0.252,-0.144 -0.345,-0.288 l -16.124,-23.298 c -0.092,-0.121 -0.115,-0.264 -0.115,-0.408 0.023,-0.168 0.092,-0.336 0.23,-0.553 0.161,-0.192 0.367,-0.432 0.643,-0.695 0.276,-0.264 0.666,-0.576 1.125,-0.912 z m 37.716,-1.823 2.871,5.206 c 0.207,-0.096 0.436,-0.192 0.689,-0.312 0.23,-0.12 0.483,-0.239 0.712,-0.36 0.253,-0.12 0.483,-0.264 0.713,-0.383 0.229,-0.145 0.436,-0.241 0.62,-0.36 0.688,-0.408 1.24,-0.84 1.676,-1.248 0.414,-0.432 0.712,-0.864 0.896,-1.296 0.184,-0.432 0.253,-0.864 0.207,-1.296 -0.046,-0.432 -0.184,-0.84 -0.413,-1.272 -0.253,-0.431 -0.529,-0.767 -0.827,-1.007 -0.322,-0.264 -0.69,-0.384 -1.149,-0.408 -0.436,-0.048 -0.942,0.048 -1.493,0.264 -0.574,0.192 -1.217,0.504 -1.93,0.936 l -2.572,1.536 z m -1.677,-9.238 c -0.505,0.287 -0.941,0.575 -1.378,0.864 -0.414,0.287 -0.781,0.551 -1.08,0.791 l 2.505,4.583 2.641,-1.583 c 1.102,-0.648 1.837,-1.368 2.182,-2.136 0.344,-0.744 0.321,-1.512 -0.115,-2.304 -0.207,-0.383 -0.437,-0.671 -0.712,-0.887 -0.299,-0.192 -0.621,-0.312 -1.011,-0.36 -0.367,-0.024 -0.804,0.024 -1.309,0.192 -0.505,0.168 -1.079,0.455 -1.723,0.84 z m -1.883,-3.551 c 1.401,-0.817 2.665,-1.44 3.767,-1.824 1.125,-0.408 2.136,-0.6 3.009,-0.576 0.896,0.024 1.653,0.24 2.297,0.672 0.666,0.408 1.194,1.007 1.653,1.824 0.598,1.103 0.805,2.207 0.644,3.263 -0.161,1.079 -0.69,2.063 -1.608,2.951 1.447,-0.552 2.733,-0.624 3.881,-0.24 1.149,0.408 2.068,1.224 2.78,2.519 0.574,1.032 0.872,2.064 0.941,3.072 0.069,1.007 -0.137,2.015 -0.619,2.975 -0.46,0.984 -1.195,1.944 -2.183,2.879 -0.964,0.96 -2.228,1.872 -3.766,2.808 -0.506,0.287 -0.988,0.576 -1.424,0.815 -0.437,0.264 -0.874,0.504 -1.287,0.744 -0.413,0.217 -0.827,0.456 -1.263,0.672 -0.414,0.216 -0.896,0.432 -1.379,0.648 -0.643,0.312 -1.194,0.384 -1.63,0.216 -0.437,-0.168 -0.827,-0.576 -1.195,-1.224 l -8.567,-15.692 c -0.345,-0.624 -0.459,-1.176 -0.39,-1.632 0.068,-0.479 0.344,-0.887 0.803,-1.272 0.322,-0.215 0.666,-0.455 1.08,-0.743 0.413,-0.288 0.85,-0.576 1.332,-0.888 0.482,-0.312 0.987,-0.648 1.516,-0.984 0.528,-0.312 1.057,-0.647 1.608,-0.983 z m 27.379,0.36 c -0.827,0.383 -1.516,0.791 -2.044,1.175 -0.551,0.408 -0.942,0.816 -1.217,1.248 -0.253,0.432 -0.391,0.864 -0.414,1.319 0,0.432 0.069,0.888 0.276,1.368 0.344,0.816 0.85,1.32 1.539,1.56 0.666,0.24 1.446,0.144 2.297,-0.24 0.735,-0.336 1.332,-0.84 1.768,-1.512 0.46,-0.672 0.827,-1.512 1.149,-2.543 l -1.379,-3.263 -1.975,0.888 z m -6.202,-11.758 c 1.425,-0.672 2.734,-1.08 3.882,-1.248 1.126,-0.192 2.159,-0.119 3.078,0.193 0.919,0.287 1.723,0.864 2.435,1.679 0.712,0.816 1.332,1.896 1.883,3.215 l 5.444,12.885 c 0.092,0.216 0.092,0.384 0,0.576 -0.091,0.168 -0.276,0.36 -0.551,0.552 -0.276,0.168 -0.689,0.408 -1.287,0.672 -0.597,0.288 -1.056,0.455 -1.377,0.527 -0.299,0.096 -0.529,0.096 -0.69,0.049 -0.161,-0.072 -0.298,-0.192 -0.367,-0.408 l -0.643,-1.512 c -0.414,1.176 -0.988,2.231 -1.746,3.167 -0.781,0.912 -1.746,1.632 -2.94,2.184 -0.965,0.432 -1.907,0.72 -2.848,0.839 -0.919,0.096 -1.792,0.025 -2.619,-0.215 -0.803,-0.24 -1.539,-0.672 -2.205,-1.296 -0.643,-0.624 -1.194,-1.464 -1.631,-2.495 -0.482,-1.104 -0.666,-2.184 -0.597,-3.192 0.069,-1.008 0.414,-1.991 1.011,-2.903 0.597,-0.912 1.47,-1.799 2.595,-2.615 1.126,-0.84 2.504,-1.608 4.135,-2.375 l 1.791,-0.817 -0.505,-1.151 c -0.252,-0.6 -0.528,-1.104 -0.827,-1.512 -0.299,-0.384 -0.666,-0.671 -1.056,-0.864 -0.391,-0.168 -0.85,-0.239 -1.355,-0.168 -0.506,0.072 -1.08,0.24 -1.746,0.552 -0.85,0.384 -1.585,0.84 -2.182,1.368 -0.598,0.503 -1.103,1.007 -1.516,1.488 -0.414,0.479 -0.758,0.911 -1.034,1.271 -0.253,0.36 -0.505,0.576 -0.712,0.696 -0.161,0.072 -0.321,0.072 -0.482,0.024 -0.138,-0.048 -0.299,-0.144 -0.46,-0.288 -0.16,-0.168 -0.298,-0.36 -0.459,-0.624 -0.161,-0.239 -0.299,-0.528 -0.436,-0.864 -0.207,-0.455 -0.322,-0.815 -0.345,-1.103 -0.046,-0.288 -0.023,-0.576 0.092,-0.888 0.092,-0.288 0.345,-0.672 0.712,-1.128 0.368,-0.479 0.849,-0.983 1.401,-1.487 0.551,-0.504 1.171,-1.008 1.884,-1.488 0.712,-0.504 1.446,-0.912 2.273,-1.296 z m 17.319,-6.766 c 0.552,-0.169 0.988,-0.288 1.333,-0.36 0.367,-0.072 0.643,-0.096 0.873,-0.096 0.229,0.024 0.413,0.048 0.528,0.144 0.114,0.096 0.206,0.192 0.252,0.36 l 2.182,7.51 7.764,-2.472 -2.182,-7.51 c -0.046,-0.143 -0.046,-0.288 0.023,-0.432 0.046,-0.143 0.161,-0.264 0.344,-0.407 0.161,-0.144 0.437,-0.289 0.782,-0.432 0.321,-0.144 0.757,-0.312 1.309,-0.48 0.505,-0.168 0.941,-0.288 1.309,-0.36 0.367,-0.072 0.643,-0.096 0.873,-0.096 0.23,0.024 0.39,0.072 0.505,0.144 0.138,0.096 0.207,0.216 0.253,0.36 l 5.811,20.059 c 0.046,0.144 0.046,0.288 -0.023,0.432 -0.046,0.12 -0.161,0.264 -0.345,0.408 -0.183,0.144 -0.436,0.288 -0.78,0.432 -0.345,0.143 -0.759,0.312 -1.287,0.456 -0.528,0.168 -0.965,0.287 -1.332,0.383 -0.368,0.072 -0.666,0.096 -0.873,0.072 -0.229,0 -0.39,-0.047 -0.528,-0.144 -0.115,-0.071 -0.184,-0.192 -0.23,-0.335 l -2.297,-7.895 -7.764,2.448 2.297,7.894 c 0.047,0.144 0.024,0.288 -0.022,0.432 -0.047,0.144 -0.161,0.288 -0.368,0.432 -0.184,0.144 -0.437,0.288 -0.758,0.432 -0.345,0.144 -0.781,0.287 -1.309,0.455 -0.529,0.168 -0.965,0.289 -1.333,0.36 -0.344,0.072 -0.642,0.121 -0.872,0.096 -0.23,0 -0.391,-0.047 -0.529,-0.143 -0.114,-0.072 -0.183,-0.192 -0.229,-0.336 l -5.812,-20.059 c -0.045,-0.145 -0.045,-0.289 0,-0.432 0.069,-0.144 0.185,-0.289 0.368,-0.408 0.184,-0.145 0.459,-0.288 0.781,-0.432 0.344,-0.145 0.758,-0.312 1.286,-0.48 z m 32.892,-4.031 c -0.826,0.12 -1.516,0.407 -2.09,0.839 -0.575,0.408 -1.011,0.961 -1.309,1.632 -0.322,0.696 -0.506,1.464 -0.574,2.352 -0.069,0.887 -0.024,1.895 0.161,2.999 0.16,1.008 0.367,1.944 0.666,2.759 0.298,0.84 0.689,1.536 1.148,2.112 0.459,0.575 1.011,0.983 1.7,1.224 0.666,0.24 1.47,0.287 2.388,0.144 0.827,-0.144 1.54,-0.432 2.113,-0.84 0.575,-0.432 1.011,-0.984 1.333,-1.656 0.298,-0.672 0.482,-1.44 0.551,-2.327 0.046,-0.889 0,-1.896 -0.184,-2.976 -0.138,-1.032 -0.367,-1.968 -0.666,-2.783 -0.275,-0.84 -0.643,-1.536 -1.126,-2.111 -0.459,-0.576 -1.033,-0.985 -1.699,-1.225 -0.666,-0.263 -1.47,-0.311 -2.412,-0.143 z m -0.505,-4.655 c 1.791,-0.288 3.353,-0.312 4.732,-0.024 1.377,0.288 2.572,0.839 3.583,1.679 0.987,0.816 1.814,1.92 2.435,3.264 0.642,1.368 1.102,2.951 1.377,4.798 0.277,1.752 0.299,3.408 0.069,4.919 -0.206,1.536 -0.688,2.904 -1.423,4.104 -0.758,1.199 -1.746,2.207 -3.033,2.999 -1.263,0.815 -2.825,1.367 -4.639,1.656 -1.769,0.311 -3.331,0.311 -4.709,0.023 -1.378,-0.312 -2.573,-0.864 -3.583,-1.703 -1.011,-0.816 -1.837,-1.92 -2.458,-3.264 -0.643,-1.343 -1.102,-2.951 -1.378,-4.775 -0.276,-1.751 -0.276,-3.406 -0.069,-4.942 0.23,-1.536 0.712,-2.904 1.47,-4.079 0.735,-1.2 1.745,-2.208 3.009,-3 1.263,-0.791 2.803,-1.344 4.617,-1.655 z m 22.142,10.821 0.161,6.023 c 0.23,0.024 0.482,0.024 0.735,0.048 0.275,0.024 0.551,0.024 0.804,0.048 0.275,0 0.551,0 0.804,0 0.253,0 0.505,0 0.712,0 0.781,-0.024 1.47,-0.12 2.044,-0.288 0.552,-0.144 1.011,-0.384 1.379,-0.672 0.344,-0.288 0.597,-0.648 0.757,-1.032 0.161,-0.408 0.23,-0.863 0.207,-1.344 0,-0.503 -0.092,-0.935 -0.276,-1.295 -0.16,-0.384 -0.436,-0.696 -0.804,-0.936 -0.367,-0.24 -0.849,-0.408 -1.446,-0.504 -0.598,-0.095 -1.31,-0.144 -2.137,-0.12 l -2.94,0.072 z m 2.711,-8.974 c -0.575,0.025 -1.103,0.049 -1.608,0.096 -0.505,0.048 -0.942,0.096 -1.309,0.144 l 0.137,5.279 3.032,-0.072 c 1.263,-0.024 2.228,-0.288 2.894,-0.792 0.644,-0.504 0.965,-1.2 0.942,-2.111 0,-0.408 -0.092,-0.792 -0.253,-1.104 -0.137,-0.336 -0.367,-0.6 -0.689,-0.816 -0.321,-0.24 -0.735,-0.384 -1.263,-0.503 -0.529,-0.096 -1.148,-0.145 -1.883,-0.121 z m -0.046,-4.03 c 1.607,-0.049 2.986,0.023 4.157,0.239 1.149,0.193 2.136,0.528 2.894,0.984 0.758,0.456 1.332,1.032 1.723,1.728 0.39,0.672 0.597,1.487 0.62,2.423 0.023,1.272 -0.275,2.352 -0.896,3.215 -0.643,0.864 -1.562,1.44 -2.756,1.776 1.516,0.24 2.687,0.816 3.514,1.728 0.827,0.911 1.264,2.111 1.309,3.575 0.024,1.199 -0.161,2.255 -0.574,3.191 -0.39,0.911 -1.033,1.679 -1.883,2.304 -0.85,0.623 -1.93,1.103 -3.216,1.463 -1.309,0.336 -2.848,0.552 -4.594,0.6 -0.597,0 -1.148,0.024 -1.631,0.024 -0.505,0 -0.988,0 -1.469,0 -0.483,0 -0.943,-0.024 -1.425,-0.024 -0.459,-0.024 -0.964,-0.048 -1.516,-0.12 -0.712,-0.024 -1.217,-0.24 -1.515,-0.6 -0.322,-0.384 -0.483,-0.936 -0.483,-1.679 l -0.46,-18.044 c 0,-0.72 0.116,-1.272 0.391,-1.656 0.275,-0.384 0.712,-0.6 1.287,-0.695 0.39,-0.049 0.803,-0.097 1.308,-0.145 0.483,-0.023 1.011,-0.072 1.562,-0.119 0.575,-0.025 1.172,-0.072 1.792,-0.097 0.597,-0.024 1.218,-0.048 1.861,-0.071 z m 24.921,0.887 c 0.597,0.048 1.172,0.168 1.746,0.336 0.551,0.168 1.079,0.36 1.562,0.6 0.482,0.24 0.919,0.504 1.286,0.768 0.39,0.264 0.643,0.503 0.781,0.696 0.161,0.192 0.253,0.336 0.322,0.456 0.045,0.119 0.092,0.287 0.114,0.479 0.024,0.192 0.024,0.432 0.024,0.697 0,0.263 -0.024,0.599 -0.069,1.007 -0.069,0.887 -0.207,1.512 -0.391,1.872 -0.184,0.359 -0.391,0.504 -0.62,0.504 -0.253,-0.049 -0.528,-0.168 -0.781,-0.408 -0.275,-0.264 -0.574,-0.528 -0.942,-0.84 -0.367,-0.288 -0.804,-0.576 -1.332,-0.864 -0.506,-0.264 -1.148,-0.432 -1.883,-0.504 -1.471,-0.144 -2.642,0.336 -3.515,1.416 -0.896,1.104 -1.424,2.807 -1.63,5.062 -0.116,1.128 -0.093,2.136 0.023,3 0.114,0.887 0.344,1.631 0.666,2.255 0.321,0.6 0.757,1.08 1.309,1.44 0.551,0.336 1.194,0.552 1.975,0.624 0.758,0.072 1.447,0.023 2.021,-0.168 0.575,-0.192 1.103,-0.408 1.54,-0.672 0.459,-0.24 0.826,-0.48 1.125,-0.696 0.298,-0.216 0.551,-0.312 0.757,-0.288 0.139,0 0.23,0.072 0.322,0.144 0.069,0.096 0.138,0.24 0.161,0.456 0.046,0.216 0.069,0.48 0.069,0.816 0,0.336 -0.023,0.767 -0.069,1.271 -0.046,0.409 -0.092,0.745 -0.137,1.008 -0.047,0.264 -0.093,0.504 -0.161,0.696 -0.046,0.168 -0.092,0.312 -0.161,0.432 -0.069,0.12 -0.184,0.24 -0.391,0.408 -0.183,0.168 -0.528,0.36 -0.987,0.576 -0.437,0.216 -0.965,0.384 -1.54,0.527 -0.55,0.145 -1.171,0.264 -1.837,0.313 -0.666,0.072 -1.332,0.072 -2.021,0 -1.539,-0.145 -2.871,-0.528 -4.02,-1.152 -1.125,-0.624 -2.067,-1.464 -2.779,-2.495 -0.712,-1.056 -1.217,-2.304 -1.493,-3.768 -0.299,-1.44 -0.345,-3.047 -0.184,-4.87 0.184,-2.088 0.597,-3.864 1.24,-5.327 0.644,-1.464 1.448,-2.664 2.435,-3.575 0.988,-0.912 2.113,-1.536 3.377,-1.896 1.263,-0.36 2.618,-0.48 4.088,-0.336 z m 14.356,2.543 c 0.506,0.096 0.919,0.217 1.263,0.336 0.345,0.121 0.62,0.24 0.827,0.36 0.207,0.121 0.345,0.24 0.437,0.361 0.069,0.119 0.115,0.239 0.091,0.335 l -1.653,7.967 1.125,0.263 c 0.459,0.096 0.873,0.12 1.263,0.096 0.391,-0.023 0.758,-0.144 1.126,-0.359 0.345,-0.193 0.712,-0.481 1.057,-0.864 0.344,-0.384 0.712,-0.888 1.079,-1.488 l 2.549,-4.055 c 0.069,-0.144 0.185,-0.24 0.299,-0.336 0.138,-0.096 0.299,-0.144 0.528,-0.168 0.23,-0.024 0.529,-0.024 0.92,0.048 0.367,0.048 0.872,0.144 1.493,0.288 0.528,0.12 0.964,0.216 1.308,0.336 0.345,0.096 0.598,0.216 0.782,0.312 0.183,0.119 0.321,0.216 0.367,0.312 0.046,0.096 0.069,0.216 0.046,0.336 -0.023,0.167 -0.092,0.335 -0.207,0.528 -0.092,0.215 -0.253,0.479 -0.482,0.815 l -2.366,3.551 c -0.46,0.696 -0.919,1.296 -1.378,1.752 -0.459,0.48 -0.896,0.84 -1.332,1.104 -0.437,0.288 -0.85,0.48 -1.263,0.623 -0.414,0.121 -0.805,0.217 -1.172,0.265 l 0,0.047 c 0.414,0.288 0.804,0.6 1.149,0.936 0.344,0.313 0.666,0.696 0.941,1.128 0.276,0.456 0.528,0.984 0.758,1.608 0.207,0.624 0.414,1.343 0.574,2.183 l 0.965,5.015 c 0.046,0.216 0.069,0.408 0.092,0.576 0.023,0.144 0.046,0.288 0.046,0.408 0,0.12 0,0.216 0,0.312 l -0.023,0.191 c -0.046,0.121 -0.092,0.217 -0.184,0.288 -0.114,0.072 -0.275,0.097 -0.482,0.121 -0.207,0 -0.505,-0.024 -0.873,-0.073 -0.367,-0.048 -0.827,-0.144 -1.355,-0.263 -0.62,-0.145 -1.125,-0.264 -1.516,-0.384 -0.391,-0.12 -0.689,-0.24 -0.919,-0.336 -0.23,-0.096 -0.368,-0.216 -0.459,-0.361 -0.069,-0.119 -0.115,-0.263 -0.161,-0.431 l -0.804,-5.303 c -0.092,-0.719 -0.207,-1.319 -0.39,-1.823 -0.161,-0.504 -0.368,-0.912 -0.621,-1.248 -0.252,-0.336 -0.551,-0.6 -0.941,-0.816 -0.368,-0.192 -0.804,-0.36 -1.31,-0.479 l -1.125,-0.241 -1.722,8.35 c -0.024,0.097 -0.093,0.192 -0.208,0.264 -0.138,0.097 -0.321,0.144 -0.551,0.168 -0.229,0.024 -0.528,0.024 -0.895,-0.024 -0.345,-0.047 -0.782,-0.12 -1.287,-0.216 -0.505,-0.12 -0.941,-0.24 -1.286,-0.36 -0.345,-0.12 -0.62,-0.239 -0.804,-0.36 -0.207,-0.119 -0.344,-0.264 -0.437,-0.383 -0.068,-0.121 -0.092,-0.217 -0.068,-0.336 l 4.272,-20.731 c 0.023,-0.096 0.092,-0.192 0.207,-0.264 0.114,-0.096 0.275,-0.145 0.505,-0.145 0.253,-0.023 0.528,-0.023 0.896,0.025 0.367,0.048 0.803,0.12 1.309,0.239 z m 23.429,6.119 c 1.01,0.384 1.699,0.72 2.044,1.008 0.367,0.312 0.505,0.6 0.414,0.888 l -2.986,8.757 c -0.207,0.6 -0.437,1.225 -0.69,1.848 -0.275,0.648 -0.528,1.248 -0.804,1.824 0.529,-0.456 1.08,-0.912 1.631,-1.368 0.551,-0.456 1.103,-0.888 1.7,-1.296 l 9.509,-6.67 c 0.161,-0.12 0.345,-0.216 0.506,-0.288 0.16,-0.072 0.344,-0.096 0.551,-0.096 0.229,0 0.482,0.048 0.758,0.12 0.275,0.072 0.643,0.192 1.079,0.36 0.506,0.168 0.896,0.336 1.217,0.48 0.322,0.168 0.552,0.312 0.713,0.456 0.183,0.144 0.275,0.287 0.298,0.432 0.046,0.144 0.023,0.287 -0.023,0.432 l -6.707,19.819 c -0.046,0.144 -0.137,0.263 -0.253,0.336 -0.114,0.072 -0.275,0.095 -0.505,0.095 -0.206,0 -0.482,-0.072 -0.827,-0.143 -0.344,-0.096 -0.78,-0.24 -1.286,-0.432 -0.506,-0.192 -0.919,-0.36 -1.263,-0.528 -0.345,-0.144 -0.597,-0.288 -0.804,-0.456 -0.184,-0.144 -0.321,-0.288 -0.368,-0.408 -0.069,-0.144 -0.069,-0.288 -0.023,-0.431 l 2.986,-8.806 c 0.207,-0.625 0.46,-1.272 0.713,-1.92 0.252,-0.648 0.528,-1.272 0.827,-1.896 -0.552,0.504 -1.126,0.984 -1.723,1.44 -0.597,0.432 -1.218,0.887 -1.815,1.319 l -9.44,6.695 c -0.184,0.12 -0.368,0.216 -0.505,0.288 -0.161,0.072 -0.322,0.096 -0.529,0.096 -0.206,0 -0.436,-0.024 -0.712,-0.12 -0.276,-0.072 -0.62,-0.192 -1.056,-0.336 -0.506,-0.192 -0.919,-0.36 -1.218,-0.504 -0.299,-0.144 -0.551,-0.288 -0.712,-0.432 -0.161,-0.143 -0.276,-0.264 -0.321,-0.408 -0.024,-0.144 -0.024,-0.288 0.023,-0.432 l 6.707,-19.819 c 0.045,-0.12 0.138,-0.24 0.252,-0.312 0.115,-0.096 0.276,-0.12 0.505,-0.12 0.23,0 0.528,0.049 0.874,0.12 0.344,0.097 0.757,0.24 1.263,0.408 z m 25.105,10.293 c 0.942,0.504 1.585,0.913 1.907,1.272 0.321,0.336 0.413,0.649 0.275,0.912 l -3.996,8.302 c -0.276,0.576 -0.575,1.152 -0.896,1.752 -0.345,0.6 -0.69,1.151 -1.034,1.703 0.597,-0.384 1.195,-0.767 1.792,-1.152 0.597,-0.383 1.217,-0.719 1.837,-1.055 l 10.244,-5.399 c 0.184,-0.096 0.345,-0.168 0.528,-0.216 0.161,-0.024 0.345,-0.047 0.575,0 0.207,0.024 0.437,0.096 0.712,0.216 0.275,0.096 0.62,0.264 1.033,0.48 0.483,0.24 0.851,0.456 1.149,0.648 0.299,0.192 0.528,0.36 0.666,0.528 0.161,0.168 0.23,0.336 0.252,0.479 0,0.145 -0.022,0.289 -0.091,0.432 l -9.027,18.764 c -0.069,0.144 -0.161,0.24 -0.276,0.312 -0.115,0.048 -0.298,0.072 -0.505,0.024 -0.23,-0.024 -0.482,-0.12 -0.827,-0.24 -0.321,-0.144 -0.735,-0.336 -1.217,-0.6 -0.483,-0.24 -0.873,-0.48 -1.194,-0.672 -0.299,-0.191 -0.552,-0.383 -0.735,-0.551 -0.185,-0.168 -0.276,-0.336 -0.322,-0.48 -0.046,-0.145 -0.023,-0.288 0.046,-0.432 l 3.997,-8.351 c 0.298,-0.575 0.597,-1.175 0.941,-1.799 0.322,-0.599 0.666,-1.199 1.034,-1.752 -0.598,0.408 -1.24,0.792 -1.884,1.176 -0.643,0.36 -1.286,0.72 -1.952,1.08 l -10.176,5.423 c -0.183,0.096 -0.367,0.144 -0.528,0.216 -0.16,0.048 -0.321,0.048 -0.528,0.024 -0.184,-0.024 -0.436,-0.096 -0.689,-0.217 -0.276,-0.096 -0.597,-0.263 -1.011,-0.479 -0.482,-0.24 -0.849,-0.456 -1.148,-0.648 -0.276,-0.192 -0.505,-0.36 -0.643,-0.528 -0.161,-0.144 -0.253,-0.312 -0.276,-0.432 -0.023,-0.143 0,-0.288 0.069,-0.432 l 9.027,-18.787 c 0.069,-0.12 0.161,-0.216 0.275,-0.288 0.116,-0.072 0.299,-0.072 0.529,-0.048 0.229,0.024 0.505,0.12 0.827,0.24 0.344,0.12 0.758,0.312 1.24,0.575 z m 6.018,-8.325 c 0.437,0.24 0.781,0.432 1.034,0.623 0.275,0.192 0.459,0.385 0.55,0.553 0.116,0.167 0.161,0.311 0.161,0.479 -0.023,0.168 -0.068,0.336 -0.137,0.528 -0.184,0.384 -0.299,0.768 -0.322,1.152 -0.023,0.384 0.023,0.767 0.161,1.128 0.137,0.36 0.367,0.696 0.666,1.007 0.298,0.336 0.666,0.6 1.102,0.84 0.437,0.216 0.85,0.36 1.264,0.432 0.39,0.048 0.781,0.024 1.148,-0.096 0.368,-0.096 0.69,-0.288 0.965,-0.552 0.299,-0.264 0.528,-0.576 0.712,-0.984 0.092,-0.168 0.184,-0.287 0.299,-0.383 0.115,-0.096 0.276,-0.144 0.459,-0.168 0.207,0 0.436,0.024 0.712,0.119 0.299,0.096 0.643,0.264 1.034,0.456 0.482,0.264 0.872,0.48 1.171,0.696 0.299,0.192 0.528,0.384 0.666,0.576 0.138,0.168 0.23,0.36 0.23,0.528 0.023,0.168 -0.023,0.36 -0.138,0.576 -0.39,0.815 -0.896,1.536 -1.493,2.111 -0.597,0.6 -1.332,1.032 -2.159,1.272 -0.827,0.264 -1.792,0.312 -2.871,0.144 -1.103,-0.168 -2.32,-0.6 -3.675,-1.32 -1.309,-0.671 -2.343,-1.415 -3.124,-2.183 -0.781,-0.792 -1.355,-1.584 -1.677,-2.424 -0.321,-0.84 -0.459,-1.679 -0.368,-2.567 0.093,-0.912 0.368,-1.799 0.782,-2.688 0.114,-0.215 0.23,-0.359 0.367,-0.455 0.138,-0.096 0.322,-0.144 0.529,-0.12 0.206,0 0.482,0.072 0.803,0.192 0.322,0.12 0.69,0.288 1.149,0.528 z m 30.48,20.946 c 0.483,0.336 0.85,0.649 1.149,0.912 0.275,0.264 0.482,0.504 0.619,0.696 0.139,0.192 0.207,0.384 0.23,0.528 0,0.144 -0.045,0.288 -0.138,0.408 l -13.689,19.844 8.705,6.574 13.713,-19.844 c 0.069,-0.119 0.206,-0.216 0.344,-0.24 0.138,-0.047 0.322,-0.023 0.552,0.049 0.23,0.072 0.505,0.215 0.827,0.407 0.344,0.216 0.735,0.48 1.194,0.84 0.482,0.36 0.85,0.672 1.148,0.912 0.276,0.264 0.483,0.504 0.621,0.696 0.137,0.216 0.206,0.384 0.229,0.528 0,0.144 -0.046,0.287 -0.137,0.432 l -13.69,19.819 2.067,1.584 c 0.299,0.215 0.46,0.455 0.482,0.696 0.023,0.215 -0.114,0.527 -0.39,0.935 l -6.156,8.926 c -0.092,0.12 -0.207,0.216 -0.321,0.264 -0.115,0.024 -0.276,0.024 -0.46,-0.024 -0.206,-0.072 -0.436,-0.192 -0.735,-0.36 -0.298,-0.168 -0.643,-0.408 -1.056,-0.72 -0.414,-0.311 -0.758,-0.6 -0.988,-0.815 -0.253,-0.241 -0.436,-0.457 -0.574,-0.624 -0.115,-0.193 -0.184,-0.336 -0.184,-0.48 0,-0.145 0.023,-0.288 0.115,-0.408 l 4.02,-5.807 -15.597,-11.757 c -0.436,-0.312 -0.689,-0.696 -0.758,-1.151 -0.069,-0.457 0.092,-0.936 0.459,-1.464 l 15.482,-22.411 c 0.069,-0.144 0.207,-0.216 0.345,-0.24 0.137,-0.048 0.321,-0.024 0.55,0.048 0.23,0.072 0.506,0.216 0.827,0.408 0.345,0.216 0.735,0.48 1.195,0.839 z m 31.835,25.699 c 0.597,0.576 1.149,1.151 1.608,1.775 0.482,0.624 0.896,1.248 1.218,1.848 0.344,0.623 0.597,1.2 0.804,1.775 0.183,0.576 0.298,1.008 0.321,1.32 0.023,0.288 0,0.528 -0.023,0.671 -0.046,0.168 -0.115,0.336 -0.207,0.529 -0.114,0.216 -0.252,0.432 -0.413,0.671 -0.184,0.24 -0.391,0.504 -0.666,0.84 -0.299,0.36 -0.574,0.648 -0.804,0.864 -0.23,0.24 -0.436,0.408 -0.62,0.504 -0.184,0.096 -0.345,0.144 -0.483,0.144 -0.138,0 -0.252,-0.048 -0.367,-0.144 -0.161,-0.144 -0.299,-0.456 -0.368,-0.888 -0.091,-0.456 -0.229,-0.984 -0.436,-1.607 -0.207,-0.648 -0.482,-1.32 -0.896,-2.04 -0.39,-0.744 -0.987,-1.464 -1.769,-2.184 -0.872,-0.791 -1.791,-1.319 -2.779,-1.583 -0.987,-0.24 -2.021,-0.264 -3.077,0 -1.057,0.24 -2.114,0.744 -3.193,1.488 -1.057,0.744 -2.114,1.727 -3.147,2.951 -1.126,1.344 -1.976,2.639 -2.527,3.863 -0.574,1.224 -0.872,2.375 -0.919,3.455 -0.045,1.08 0.161,2.111 0.575,3.047 0.436,0.936 1.079,1.824 1.952,2.615 0.781,0.721 1.539,1.249 2.274,1.585 0.758,0.336 1.424,0.575 2.022,0.719 0.619,0.144 1.125,0.24 1.561,0.288 0.414,0.048 0.712,0.144 0.85,0.288 0.115,0.096 0.184,0.216 0.207,0.312 0.023,0.12 0,0.264 -0.069,0.432 -0.069,0.192 -0.207,0.408 -0.39,0.695 -0.184,0.265 -0.46,0.625 -0.827,1.032 -0.253,0.312 -0.46,0.553 -0.644,0.744 -0.206,0.192 -0.367,0.336 -0.528,0.456 -0.16,0.12 -0.321,0.193 -0.459,0.24 -0.138,0.072 -0.345,0.096 -0.575,0.12 -0.229,0.024 -0.619,-0.024 -1.148,-0.144 -0.528,-0.096 -1.149,-0.312 -1.815,-0.576 -0.666,-0.287 -1.401,-0.647 -2.159,-1.127 -0.78,-0.48 -1.538,-1.056 -2.297,-1.776 -1.493,-1.367 -2.641,-2.856 -3.445,-4.439 -0.804,-1.583 -1.217,-3.239 -1.263,-4.967 -0.023,-1.752 0.321,-3.527 1.08,-5.375 0.757,-1.847 1.952,-3.743 3.536,-5.638 1.631,-1.943 3.331,-3.432 5.1,-4.487 1.768,-1.056 3.514,-1.68 5.26,-1.871 1.746,-0.217 3.468,0 5.168,0.599 1.676,0.624 3.284,1.608 4.777,2.976 z m 11.554,11.613 2.618,2.951 c 0.483,0.528 0.851,1.031 1.103,1.488 0.253,0.456 0.39,0.911 0.459,1.368 0.046,0.455 0,0.935 -0.161,1.415 -0.137,0.504 -0.39,1.032 -0.711,1.632 l -8.407,17.131 0.069,0.073 17.088,-7.319 c 0.598,-0.311 1.126,-0.528 1.609,-0.647 0.482,-0.145 0.918,-0.168 1.332,-0.145 0.39,0.049 0.78,0.192 1.148,0.432 0.367,0.24 0.735,0.576 1.126,1.008 l 2.71,3.024 c 0.276,0.311 0.482,0.623 0.598,0.911 0.114,0.312 0.16,0.6 0.16,0.888 -0.023,0.288 -0.115,0.576 -0.253,0.864 -0.161,0.264 -0.367,0.552 -0.642,0.816 l -18.973,18.451 c -0.092,0.096 -0.23,0.168 -0.368,0.192 -0.138,0.024 -0.321,-0.024 -0.528,-0.144 -0.207,-0.096 -0.437,-0.288 -0.712,-0.528 -0.276,-0.24 -0.62,-0.576 -0.988,-1.008 -0.368,-0.407 -0.666,-0.767 -0.873,-1.079 -0.206,-0.288 -0.367,-0.552 -0.436,-0.768 -0.092,-0.216 -0.138,-0.408 -0.092,-0.552 0.023,-0.168 0.092,-0.288 0.184,-0.384 l 17.319,-16.868 -0.024,-0.024 -23.037,10.39 c -0.185,0.096 -0.368,0.12 -0.552,0.12 -0.183,-0.024 -0.39,-0.072 -0.597,-0.216 -0.23,-0.12 -0.459,-0.312 -0.712,-0.576 -0.276,-0.24 -0.574,-0.576 -0.919,-0.96 -0.344,-0.383 -0.643,-0.744 -0.849,-1.032 -0.207,-0.311 -0.368,-0.576 -0.483,-0.815 -0.092,-0.24 -0.138,-0.457 -0.138,-0.625 0,-0.191 0.023,-0.359 0.115,-0.527 l 11.76,-23.034 -0.022,-0.049 -17.32,16.844 c -0.114,0.121 -0.229,0.168 -0.39,0.192 -0.138,0.025 -0.321,-0.024 -0.528,-0.143 -0.207,-0.121 -0.436,-0.289 -0.713,-0.528 -0.275,-0.24 -0.597,-0.552 -0.987,-0.984 -0.367,-0.409 -0.643,-0.768 -0.85,-1.08 -0.23,-0.312 -0.367,-0.576 -0.459,-0.792 -0.092,-0.216 -0.138,-0.408 -0.092,-0.552 0.023,-0.144 0.092,-0.287 0.207,-0.383 l 18.949,-18.452 c 0.574,-0.552 1.126,-0.792 1.7,-0.792 0.574,0.024 1.102,0.288 1.562,0.816 z m 21.453,37.887 c 0.253,0.36 0.483,0.647 0.621,0.887 0.16,0.24 0.275,0.457 0.344,0.624 0.069,0.168 0.092,0.336 0.092,0.456 0,0.144 -0.023,0.288 -0.069,0.432 l -3.078,9.118 c -0.115,0.36 -0.299,0.624 -0.551,0.84 -0.253,0.192 -0.62,0.312 -1.08,0.383 l -8.636,0.961 c -0.161,0 -0.299,0 -0.437,-0.025 -0.137,-0.024 -0.275,-0.096 -0.436,-0.215 -0.138,-0.096 -0.322,-0.264 -0.505,-0.481 -0.184,-0.191 -0.391,-0.479 -0.667,-0.839 -0.344,-0.456 -0.597,-0.84 -0.757,-1.128 -0.184,-0.312 -0.276,-0.552 -0.299,-0.744 -0.023,-0.216 0.023,-0.359 0.138,-0.455 0.114,-0.097 0.275,-0.168 0.482,-0.217 l 8.935,-1.631 3.698,-9.094 c 0.092,-0.192 0.184,-0.336 0.276,-0.408 0.114,-0.072 0.252,-0.072 0.436,0 0.161,0.072 0.367,0.24 0.597,0.48 0.253,0.24 0.552,0.6 0.896,1.056 z m 6.087,7.222 c 0.276,0.36 0.483,0.672 0.643,0.912 0.138,0.264 0.253,0.455 0.299,0.648 0.069,0.168 0.091,0.336 0.091,0.479 -0.022,0.145 -0.045,0.289 -0.114,0.456 l -3.377,9.43 c -0.114,0.36 -0.321,0.648 -0.574,0.864 -0.275,0.192 -0.62,0.336 -1.08,0.384 l -9.073,1.08 c -0.16,0 -0.321,0 -0.459,-0.025 -0.138,0 -0.276,-0.072 -0.413,-0.191 -0.161,-0.12 -0.344,-0.264 -0.529,-0.48 -0.206,-0.216 -0.436,-0.504 -0.689,-0.84 -0.344,-0.456 -0.597,-0.84 -0.757,-1.152 -0.161,-0.312 -0.253,-0.552 -0.276,-0.767 0,-0.217 0.046,-0.361 0.16,-0.48 0.116,-0.096 0.276,-0.168 0.483,-0.216 l 9.325,-1.824 4.02,-9.238 c 0.092,-0.216 0.184,-0.384 0.322,-0.48 0.137,-0.095 0.275,-0.095 0.459,-0.048 0.184,0.072 0.391,0.216 0.643,0.457 0.253,0.215 0.552,0.575 0.896,1.031 z"
				inkscape:connector-curvature="0" />
			<!-- <path id="path_ivcsm" d="M 120 370
               A 200 200 0 0 1 480 370" style="fill:none" />
			<text style="font: bold 29pt sans-serif;" text-anchor="middle" lengthAdjust="spacingAndGlyphs">
				<textPath href="#path_ivcsm" startOffset="50%">ФБУ "Ивановский ЦСМ"</textPath>
			</text> -->

			<path id="path2997"
				d="m 191.15,560.553 0.525,0.624 c 10.521,11.384 56.968,17.522 105.464,17.87 48.656,0.347 99.174,-5.185 117.543,-17.086 0.873,-0.561 1.666,-1.149 2.378,-1.737 l 0,-175.027 c 0,-24.623 -10.716,-43.882 -27.437,-57.734 -18.84,-15.598 -45.324,-24.453 -72.824,-26.52 l 0,0.045 0,1.594 -1.443,0.553 c -3.946,1.532 -7.955,2.378 -11.937,2.414 -4,0.035 -8.044,-0.74 -12.035,-2.441 l -1.38,-0.588 0,-1.452 c -27.197,2.298 -53.28,11.224 -71.836,26.778 -16.48,13.816 -27.018,32.951 -27.018,57.351 l 0,175.356 z m -2.646,3.795 c -0.517,-0.561 -0.998,-1.167 -1.381,-1.773 l -0.392,-0.614 0,-0.668 0,-176.096 c 0,-25.941 11.18,-46.26 28.676,-60.932 19.811,-16.614 47.756,-25.932 76.663,-27.954 l 2.352,-0.16 0,2.449 0,0.811 c 2.984,1.087 5.986,1.586 8.962,1.559 2.975,-0.027 5.986,-0.588 8.997,-1.603 l 0,-0.873 0,-2.432 2.343,0.142 c 29.183,1.782 57.537,11.011 77.643,27.66 17.745,14.698 29.112,35.152 29.112,61.333 l 0,176.096 0,1.024 -0.757,0.704 c -1.069,0.98 -2.317,1.942 -3.706,2.842 -19.081,12.364 -70.544,18.119 -119.895,17.762 -49.511,-0.356 -97.241,-6.966 -108.617,-19.277 z"
				inkscape:connector-curvature="0" />
			<path id="path2999"
				d="m 337.315,527.762 c 29.717,1.738 55.542,5.666 73.813,10.949 18.742,5.425 29.904,12.613 29.904,20.764 0,2.245 -0.819,4.428 -2.369,6.486 -1.426,1.906 -3.537,3.741 -6.192,5.451 l -0.917,0.588 -0.998,-0.383 -28.399,-10.948 -29.495,8.481 -0.08,4.48 17.077,7.278 7.064,3.011 -7.509,1.372 c -12,2.192 -25.754,3.955 -40.675,5.131 -14.378,1.141 -29.86,1.773 -45.957,1.773 -15.776,0 -30.965,-0.606 -45.111,-1.701 -14.681,-1.141 -28.257,-2.842 -40.176,-4.962 l -7.572,-1.354 7.118,-3.029 17.647,-7.519 -0.08,-4.48 -29.495,-8.481 -29.584,11.403 -0.962,0.365 -0.909,-0.544 c -2.913,-1.781 -5.202,-3.688 -6.752,-5.656 l -0.009,0 c -1.675,-2.12 -2.566,-4.392 -2.566,-6.762 0,-8.249 11.465,-15.518 30.653,-20.969 18.699,-5.318 45.084,-9.238 75.372,-10.868 l 2.325,-0.134 0,2.423 0,21.469 c 10.85,5.068 21.504,7.75 31.909,7.821 10.369,0.062 20.587,-2.45 30.591,-7.732 l 0,-21.433 0,-2.432 2.334,0.142 z m 72.637,15.367 c -17.505,-5.06 -42.127,-8.873 -70.553,-10.645 l 0,20.391 0,1.371 -1.185,0.66 c -11.028,6.075 -22.332,8.961 -33.842,8.89 -11.482,-0.08 -23.188,-3.109 -35.026,-8.837 l -1.283,-0.624 0,-1.46 0,-20.525 c -29.005,1.693 -54.206,5.479 -72.121,10.574 -17.148,4.873 -27.392,10.645 -27.392,16.551 0,1.256 0.543,2.557 1.568,3.858 l -0.009,0.009 c 1.06,1.345 2.646,2.699 4.694,4.035 l 29.246,-11.269 0.659,-0.258 0.686,0.205 31.766,9.131 1.586,0.454 0.027,1.719 0.142,7.759 0.036,1.559 -1.408,0.597 -11.749,5.006 c 9.807,1.506 20.551,2.744 31.998,3.635 13.994,1.087 29.076,1.683 44.79,1.683 16.026,0 31.401,-0.623 45.636,-1.754 11.661,-0.927 22.618,-2.21 32.559,-3.778 l -11.251,-4.792 -1.407,-0.606 0.036,-1.55 0.142,-7.759 0.027,-1.719 1.586,-0.454 31.766,-9.131 0.686,-0.205 0.659,0.258 28.025,10.806 c 1.817,-1.247 3.225,-2.512 4.16,-3.768 0.918,-1.221 1.408,-2.468 1.408,-3.671 0,-5.808 -9.951,-11.509 -26.662,-16.346 z"
				inkscape:connector-curvature="0" />
			<path id="path3001"
				d="m 440.809,561.195 0,0.124 c 0,3.662 0.063,6.664 0.116,9.514 l 0,0.009 c 0.045,2.797 0.107,5.701 0.107,7.884 0,0.802 -0.133,1.657 -0.356,2.485 l 0.009,0 c -0.214,0.802 -0.544,1.604 -0.971,2.388 -0.606,1.095 -1.96,1.469 -3.011,0.837 -0.704,-0.428 -1.096,-1.194 -1.096,-1.986 l -0.009,0 0,-8.9 -5.042,-1.942 c -1.14,-0.436 -1.719,-1.764 -1.309,-2.948 0.169,-0.499 0.499,-0.9 0.908,-1.158 1.88,-1.203 3.394,-2.45 4.472,-3.671 0.953,-1.086 1.595,-2.173 1.853,-3.215 0.303,-1.221 1.515,-1.951 2.681,-1.639 0.989,0.267 1.64,1.202 1.648,2.218 z m -4.32,7.803 -0.018,-0.641 -0.499,0.445 0.517,0.196 z m -38.831,33.851 c -12.578,2.708 -27.446,4.891 -43.837,6.37 -15.82,1.425 -33.129,2.218 -51.239,2.218 -17.781,0 -34.778,-0.766 -50.358,-2.138 -16.168,-1.435 -30.902,-3.555 -43.445,-6.183 -1.185,-0.24 -1.96,-1.452 -1.728,-2.69 0.134,-0.712 0.579,-1.283 1.158,-1.594 l 0,-0.009 0.187,-0.098 -0.338,-12.24 c -0.018,-0.971 0.552,-1.826 1.371,-2.183 l 0,-0.009 7.412,-3.153 c 0.392,-0.169 0.811,-0.205 1.203,-0.134 11.794,2.094 25.21,3.777 39.748,4.909 13.994,1.087 29.076,1.683 44.79,1.683 16.026,0 31.401,-0.623 45.636,-1.754 14.743,-1.167 28.346,-2.913 40.229,-5.078 0.473,-0.08 0.918,-0.009 1.328,0.196 l 7.857,3.34 c 0.864,0.366 1.38,1.256 1.363,2.183 l 0.009,0 -0.339,12.293 c 0.82,0.668 1.096,1.871 0.606,2.86 -0.33,0.668 -0.944,1.104 -1.613,1.211 z m -44.211,1.791 c 15.18,-1.372 29.014,-3.332 40.817,-5.746 l 0.294,-10.957 -5.968,-2.539 c -11.848,2.138 -25.388,3.866 -40.051,5.024 -14.378,1.141 -29.86,1.773 -45.957,1.773 -15.776,0 -30.965,-0.606 -45.111,-1.701 -14.422,-1.123 -27.776,-2.78 -39.543,-4.855 l -5.425,2.307 0.311,11.331 c 11.608,2.298 25.05,4.142 39.766,5.443 15.456,1.363 32.328,2.12 50.002,2.12 17.994,0 35.169,-0.784 50.865,-2.2 z m 36.328,-23.678 c 0.614,0.312 1.104,0.917 1.229,1.675 m -224.182,2.975 c -0.838,-1.033 -1.506,-2.138 -1.951,-3.243 -0.481,-1.202 -0.74,-2.432 -0.74,-3.643 l 0.009,-0.187 -0.053,-5.871 0,-0.009 c -0.054,-4.275 -0.116,-8.792 0.044,-13.068 l 0,-0.116 0.009,0 0,-0.089 c 0.045,-1.256 1.078,-2.245 2.29,-2.2 1.185,0.045 2.111,1.069 2.111,2.289 l 0.009,0 c 0,1.256 0.543,2.557 1.568,3.858 l 0.098,0.133 c 1.211,1.488 3.064,3.011 5.469,4.472 1.043,0.633 1.399,2.049 0.784,3.136 -0.267,0.472 -0.668,0.81 -1.14,0.989 l 0,0.009 -3.857,1.478 0,10.28 c 0,0.953 -0.561,1.773 -1.363,2.12 l -0.535,0.294 c -0.953,0.517 -2.12,0.214 -2.752,-0.632 z m 1.621,-17.487 0.018,1.693 0.044,-0.018 1.283,-0.49 -1.345,-1.185 z"
				inkscape:connector-curvature="0" />
			<path id="path3003"
				d="m 186.74,561.4 c -0.356,-7.537 8.472,-13.701 22.974,-18.342 15.118,-4.829 36.729,-8.303 60.407,-10.075 l 0.302,4.578 c -23.357,1.746 -44.62,5.158 -59.408,9.88 -12.489,3.99 -20.115,8.685 -19.874,13.745 l -4.401,0.214 z m 150.584,-28.774 c 21.326,1.426 41.137,4.454 56.201,9.3 13.772,4.428 23.785,10.467 27.704,18.307 l -3.919,2.12 c -3.323,-6.646 -12.409,-11.973 -25.086,-16.044 -14.725,-4.73 -34.171,-7.705 -55.168,-9.104 l 0.268,-4.579 z"
				inkscape:connector-curvature="0" />
			<path id="path3005"
				d="m 303.499,261.863 c 3.546,0 6.806,1.524 9.14,3.964 2.325,2.432 3.786,5.808 3.786,9.523 0,3.706 -1.452,7.091 -3.786,9.532 -2.334,2.441 -5.576,3.964 -9.14,3.964 -3.563,0 -6.797,-1.514 -9.139,-3.964 -2.334,-2.441 -3.786,-5.826 -3.786,-9.532 0,-3.715 1.461,-7.091 3.786,-9.523 2.342,-2.449 5.594,-3.964 9.139,-3.964 z m 4.989,8.276 c -1.265,-1.318 -3.038,-2.147 -4.989,-2.147 -1.951,0 -3.723,0.829 -4.988,2.147 -1.256,1.318 -2.058,3.18 -2.058,5.211 0,2.04 0.793,3.902 2.058,5.22 1.265,1.319 3.029,2.147 4.988,2.147 1.951,0 3.724,-0.828 4.989,-2.147 1.265,-1.318 2.058,-3.18 2.058,-5.22 0,-2.031 -0.802,-3.893 -2.058,-5.211 z"
				inkscape:connector-curvature="0" />
			<path id="path3007"
				d="m 291.66,290.271 c 4.178,-0.837 5.363,-3.563 6.218,-5.549 l 0,-0.009 0.25,-0.57 1.042,-2.397 2.432,0.704 0.917,0.205 0.009,0 0.971,0.062 c 0.624,0 1.239,-0.089 1.8,-0.24 l 2.325,-0.651 1.06,2.263 0.374,0.802 -2.628,1.345 2.646,-1.345 c 0.962,2.067 2.236,4.775 5.95,5.354 l 2.504,0.4 0,2.628 0,7.715 0,2.12 -1.916,0.739 c -4.044,1.559 -8.124,2.432 -12.186,2.468 -4.089,0.036 -8.222,-0.766 -12.32,-2.503 l -1.835,-0.775 0,-2.049 0,-7.715 0,-2.521 2.387,-0.481 z m 10.868,-1.469 c -1.202,2.521 -3.073,5.318 -7.376,6.823 l 0,3.234 c 2.735,0.926 5.488,1.363 8.223,1.345 2.743,-0.018 5.514,-0.517 8.275,-1.399 l 0,-3.109 c -4.151,-1.389 -5.995,-4.258 -7.278,-6.877 l -0.873,0.027 -0.971,-0.044 z"
				inkscape:connector-curvature="0" />
			<path id="path3009"
				d="m 237.499,561.204 c -0.356,-0.383 -0.686,-0.811 -0.953,-1.212 l -0.526,-0.802 0,-0.935 0,-88.707 c 0,-25.843 17.816,-42.332 40.586,-49.485 8.685,-2.735 18.101,-4.098 27.49,-4.098 9.38,0 18.805,1.381 27.482,4.098 22.787,7.153 40.603,23.651 40.603,49.485 l 0,88.707 0,1.372 -1.006,0.926 c -0.678,0.624 -1.479,1.239 -2.317,1.782 l -1.55,-2.601 1.541,2.601 c -11.081,7.162 -40.549,10.503 -68.708,10.307 -28.381,-0.205 -55.89,-4.125 -62.642,-11.438 z m 4.401,-4.054 c 5.959,5.969 31.508,9.185 58.259,9.381 27.25,0.187 55.471,-2.851 65.599,-9.398 l 0.544,-0.366 0,-87.219 c 0,-22.645 -15.973,-37.21 -36.399,-43.623 -8.106,-2.539 -16.952,-3.831 -25.807,-3.831 -8.846,0 -17.682,1.283 -25.798,3.831 l -0.009,0 c -20.417,6.413 -36.389,20.978 -36.389,43.623 l 0,87.602 z"
				inkscape:connector-curvature="0" />
			<path id="path3011"
				d="m 236.029,558.406 c -0.214,-4.356 3.456,-7.874 9.799,-10.538 5.844,-2.459 14.289,-4.427 24.052,-5.799 l 0.784,6.057 c -9.309,1.31 -17.282,3.154 -22.645,5.408 -3.892,1.63 -6.191,3.224 -6.128,4.57 l -5.862,0.302 z m 101.562,-16.622 c 8.632,1.238 16.337,3.082 22.252,5.55 5.8,2.432 10.04,5.594 12,9.505 l -5.203,2.832 c -1.265,-2.538 -4.463,-4.774 -8.988,-6.672 -5.434,-2.271 -12.676,-3.982 -20.863,-5.158 l 0.802,-6.057 z"
				inkscape:connector-curvature="0" />
			<path id="path3013"
				d="m 269.681,477.82 c 10.327,-4.375 21.176,-6.654 32.527,-6.696 11.322,-0.043 23.157,2.138 35.507,6.67 l 1.046,0.38 0,1.156 0,73.545 0,0.973 -0.841,0.465 c -10.938,6.026 -22.136,8.889 -33.544,8.812 -11.386,-0.072 -22.989,-3.077 -34.759,-8.774 l -0.914,-0.444 0,-1.032 0,-73.545 0,-1.101 0.978,-0.409 z m 32.527,-3.444 c -10.562,0.038 -20.693,2.104 -30.372,6.06 l 0,71.397 c 11.057,5.224 21.918,7.972 32.549,8.041 10.609,0.072 21.044,-2.523 31.243,-7.981 l 0,-71.402 c -11.638,-4.148 -22.776,-6.154 -33.42,-6.115 z"
				inkscape:connector-curvature="0" />
			<path id="path3015"
				d="m 271.58,478.447 c 0.49,0.79 1.135,1.528 1.903,2.206 5.484,4.861 17.045,6.905 28.909,6.73 11.941,-0.179 24.091,-2.624 30.667,-6.73 1.221,-0.759 2.241,-1.579 2.988,-2.424 l 2.295,2.202 c -0.96,1.084 -2.21,2.1 -3.678,3.013 -7.033,4.392 -19.798,7.008 -32.238,7.191 -12.521,0.188 -24.859,-2.095 -30.957,-7.498 -0.999,-0.883 -1.852,-1.865 -2.51,-2.923 l 2.621,-1.767 z"
				inkscape:connector-curvature="0" />
			<path id="path3017"
				d="m 313.191,488.243 c -1.6,6.735 33.322,61.478 -19.237,68.719 -10.901,1.503 -10.662,-0.586 -15.735,-0.648 20.33,7.736 40.019,7.005 58.975,-3.438 0,-24.515 0,-49.03 0,-73.545 -3.729,2.961 -12.616,7.944 -24.003,8.912 z"
				inkscape:connector-curvature="0" />
			<path id="path3019"
				d="m 287.035,306.466 c -46.706,4.682 -76.593,31.445 -84.745,61.288 0.362,65.26 0.725,130.52 1.087,195.779 1.449,-1.513 2.897,-3.026 4.346,-4.539 0.543,-62.234 1.086,-128.581 1.629,-190.814 7.393,-25.191 31.895,-51.893 77.683,-61.714 z"
				inkscape:connector-curvature="0" />
			<path id="path3021" d="m 388.625,361.942 7.606,-5.253 0,196.506 -7.606,4.943 0,-196.196 z"
				inkscape:connector-curvature="0" />
			<path id="path3023"
				d="m 296.183,426.665 c -24.532,2.459 -40.23,16.516 -44.511,32.191 0.19,34.277 0.38,68.554 0.57,102.83 0.761,-0.795 1.522,-1.589 2.283,-2.384 0.285,-32.687 0.571,-67.535 0.856,-100.222 3.883,-13.231 16.752,-27.256 40.802,-32.415 z"
				inkscape:connector-curvature="0" />
			<path id="path3025" d="m 349.542,459.586 3.994,-2.533 0,94.783 -3.994,2.384 0,-94.634 z"
				inkscape:connector-curvature="0" />
			<path id="path3027" d="m 276.121,486.233 3.995,-1.876 0,70.191 -3.995,1.766 0,-70.081 z"
				inkscape:connector-curvature="0" />
			<path id="path3029"
				d="m 402.193,559.867 -30.252,8.695 -0.107,5.567 25.522,10.877 c 0.57,0.241 0.917,0.846 0.908,1.461 l -0.347,12.721 26.715,14.164 27.909,-11.1 0,-8.596 -15.42,-8.472 c -0.498,-0.276 -0.783,-0.81 -0.783,-1.354 l 0,-10.814 -34.145,-13.149 z m -32.087,6.058 31.766,-9.131 0,0.009 c 0.285,-0.08 0.606,-0.089 0.9,0.027 l 35.543,13.691 c 0.561,0.214 0.962,0.784 0.962,1.435 l 0,10.948 15.42,8.471 c 0.463,0.259 0.784,0.775 0.784,1.354 l 0,10.583 c 0,0.624 -0.356,1.212 -0.944,1.435 l -29.459,11.714 0,-0.009 c -0.374,0.151 -0.811,0.142 -1.194,-0.062 l -28.123,-14.913 0,-0.009 c -0.481,-0.258 -0.802,-0.792 -0.793,-1.398 l 0.348,-12.632 -25.513,-10.868 c -0.544,-0.231 -0.918,-0.802 -0.909,-1.443 l 0.143,-7.581 c -0.072,-0.721 0.374,-1.425 1.069,-1.621 z"
				inkscape:connector-curvature="0" />
			<path id="path3031"
				d="m 371.041,565.978 35.926,15.002 30.377,-10.476 0.927,2.904 -30.885,10.654 0,-0.009 c -0.321,0.116 -0.677,0.116 -1.007,-0.027 l -36.425,-15.215 1.087,-2.833 z"
				inkscape:connector-curvature="0" />
			<path id="path3033"
				d="m 408.393,582.61 0,10.903 28.907,-11.117 1.015,2.868 -30.884,11.875 c -0.161,0.062 -0.33,0.098 -0.508,0.098 -0.811,0 -1.47,-0.695 -1.47,-1.532 l 0,-13.095 2.94,0 z"
				inkscape:connector-curvature="0" />
			<path id="path3035"
				d="m 407.546,594.324 17.06,8.32 28.889,-11.349 1.033,2.869 -29.459,11.571 0,-0.008 c -0.357,0.142 -0.766,0.133 -1.14,-0.045 l -17.63,-8.596 1.247,-2.762 z"
				inkscape:connector-curvature="0" />
			<path id="path3037" d="m 426.022,604.301 0,10.726 -2.94,0 0,-10.726 2.94,0 z"
				inkscape:connector-curvature="0" />
			<path id="path3039"
				d="m 205.198,556.794 31.758,9.131 c 0.694,0.196 1.14,0.9 1.069,1.621 l 0.151,7.581 c 0.009,0.641 -0.365,1.212 -0.909,1.443 l -25.522,10.868 0.348,12.632 c 0.009,0.606 -0.312,1.14 -0.793,1.398 l 0,0.009 -28.114,14.913 c -0.383,0.204 -0.82,0.213 -1.194,0.062 l 0,0.009 -29.459,-11.714 c -0.588,-0.223 -0.944,-0.811 -0.944,-1.435 l 0,-10.583 c 0,-0.579 0.321,-1.095 0.784,-1.354 l 15.42,-8.471 0,-10.948 c 0,-0.651 0.401,-1.221 0.962,-1.435 l 35.543,-13.691 c 0.294,-0.116 0.615,-0.107 0.9,-0.027 l 0,-0.009 z m 29.931,11.768 -30.252,-8.695 -34.145,13.149 0,10.814 c 0,0.544 -0.285,1.078 -0.784,1.354 l -15.42,8.472 0,8.596 27.91,11.1 26.706,-14.164 -0.347,-12.721 c -0.009,-0.615 0.338,-1.22 0.909,-1.461 l 25.53,-10.877 -0.107,-5.567 z"
				inkscape:connector-curvature="0" />
			<path id="path3041"
				d="m 237.116,568.811 -36.426,15.215 c -0.329,0.143 -0.685,0.143 -1.006,0.027 l 0,0.009 -30.885,-10.654 0.927,-2.904 30.377,10.476 35.926,-15.002 1.087,2.833 z"
				inkscape:connector-curvature="0" />
			<path id="path3043"
				d="m 201.617,582.61 0,13.095 c 0,0.837 -0.659,1.532 -1.47,1.532 -0.178,0 -0.347,-0.036 -0.508,-0.098 l -30.884,-11.875 1.015,-2.868 28.907,11.117 0,-10.903 2.94,0 z"
				inkscape:connector-curvature="0" />
			<path id="path3045"
				d="m 200.771,597.086 -17.63,8.596 c -0.374,0.178 -0.783,0.187 -1.14,0.045 l 0,0.008 -29.459,-11.571 1.033,-2.869 28.889,11.349 17.06,-8.32 1.247,2.762 z"
				inkscape:connector-curvature="0" />
			<path id="path3047" d="m 183.988,604.301 0,10.726 -2.94,0 0,-10.726 2.94,0 z"
				inkscape:connector-curvature="0" />
		</g>
	</g>
</svg>