<?xml version="1.0" encoding="UTF-8" standalone="no"?>
<svg xmlns:dc="http://purl.org/dc/elements/1.1/" xmlns:cc="http://creativecommons.org/ns#"
	xmlns:svg="http://www.w3.org/2000/svg" xmlns="http://www.w3.org/2000/svg" height="130" width="220" version="1.0">
	<g style="fill:#000000; fill-rule:evenodd; fill-opacity:1; stroke:none;">
		<!-- первая длинная черта -->
		<rect x="30" y="30" width="10" height="70" />
		<!-- короткие черточки -->
		<rect x="60" y="80" width="10" height="20" />
		<rect x="90" y="80" width="10" height="20" />
		<rect x="120" y="80" width="10" height="20" />
		<rect x="150" y="80" width="10" height="20" />
		<!-- последняя длинная черта -->
		<rect x="180" y="30" width="10" height="70" />
		<!-- Р -->
		<path d="M 60,30  v 40  h 10  v -10  h 6  a 15 15 0 0 0 0 -30  z
			 	m 10,10  v 10  h 6  a 5 5 0 0 0 0 -10  z" />
		<!-- С -->
		<path d="M 132,35  a 20 20 0 1 0 0 30
			 	l -7,-7   a 10 10 0 1 1 0 -16  z" />
		<!-- Т -->
		<path d="M 170,30  h -30  v 10  h 10  v 30  h 10  v -30  h 10  z" />
	</g>
</svg>